<svg id="Layer_1" data-name="Layer 1" xmlns="http://www.w3.org/2000/svg" width="1863.04671" height="536.91672" viewBox="0 0 1863.04671 536.91672">
  <g>
    <path d="M864.78967,812.27889c-27.69348-7.16255-73.99469,19.58343-101.11749,28.671,78.72964,40.82791,146.86263,30.12422,234.50527,43.69048-3.92556-22.88095,13.43708-20.92567,9.51152-43.80662-1.0387-6.05426-2.55757-12.84667-7.80617-16.0381-3.95361-2.404-8.93-2.03282-13.53518-1.58286C928.00786,828.913,886.20649,808.91244,864.78967,812.27889Z" transform="translate(-740.42767 -499.6789)" style="fill: #ec008c"/>
    <path d="M1147.98554,791.75141c-56.8442-8.2937-243.71108-84.26949-252.701-84.51262-6.04959-.16361-94.02286,21.2882-154.85684,49.511C814.168,800.776,889.10642,842.79552,967.54579,887.5137,1032.05494,847.27676,1100.11979,812.74275,1147.98554,791.75141Z" transform="translate(-740.42767 -499.6789)" style="fill: #ed1c24"/>
    <path d="M2012.9147,881.09238c-303.54684,64.89962-619.96169,119.52091-928.27633,155.50324,33.325-39.79334,74.90214-72.64427,111.17665-99.78334,227.64181-50.33,478.26259-55.7199,696.46657-91.20022,52.322-8.50764,135.22877-33.77748,177.40163-37.25435C2139.72325,789.88793,2025.4924,878.40321,2012.9147,881.09238Z" transform="translate(-740.42767 -499.6789)" style="fill: #ec008c"/>
    <path d="M1682.94769,920.12073s65.6386-39.02835,133.05121-56.76851c48.06759-12.64937,62.09057-19.51418,62.09057-19.51418s12.62188-.891,23.06221,44.3504c5.322,23.06221-3.548,54.9945-10.6441,60.31655s-21.28819,8.87008-95.79687,17.74016c-56.61765,6.7402-94.02286-3.548-104.667-12.41811S1686.49572,927.2168,1682.94769,920.12073Z" transform="translate(-740.42767 -499.6789)" style="fill: #fff200"/>
    <path d="M1880.72863,848.3472c-9.33243.85693-25.77379,23.27955-23.92736,48.71132s14.69517,59.3737,35.006,55.55894,23.68139-32.16792,19.98852-53.78492S1908.4252,845.804,1880.72863,848.3472Z" transform="translate(-740.42767 -499.6789)" style="fill: #2e3192"/>
    <path d="M1540.59055,648.8714c279.87709-74.08566,567.88682-125.4048,857.35839-120.29755,46.81069.8259,94.14673,3.215,139.02556,16.54962,28.95077,8.602,60.63713,27.26711,62.58449,57.40594.93132,14.41383-5.48714,28.33241-13.4769,40.36527-30.13086,45.37813-81.828,71.09231-132.4121,91.29865-102.67647,41.0152-210.5072,67.73849-318.90788,89.51C1747.885,901.40466,1351.61441,917.19749,957.318,932.74515c-10.57009.4168-23.90881-.92358-27.42813-10.89929-3.70733-10.5086,7.03147-20.10829,16.46137-26.04563C1139.54513,774.15969,1357.59174,697.31262,1540.59055,648.8714Z" transform="translate(-740.42767 -499.6789)" style="fill: #ed1c24"/>
    <ellipse cx="1283.20703" cy="193.94526" rx="32.00819" ry="30.73577" style="fill: #00aeef"/>
    <path d="M1546.34844,836.742c108.77422-23.69456,376.49647-78.48443,498.90794-104.84688a3.2633,3.2633,0,0,0-.07344-6.3943c-275.22244-53.29281-550.76961-107.14623-819.926-185.45894-73.24661-21.31155-177.4057-40.36295-253.68969-40.36295-8.87008,0-76.00059,10.774-154.3394,42.57639,57.9665,36.58525,147.24334,46.12442,219.978,74.50868,100.749,39.31668,122.40712,49.67245,225.6719,101.092C1410.4974,791.36166,1411.93587,866.0214,1546.34844,836.742Z" transform="translate(-740.42767 -499.6789)" style="fill: #ec008c"/>
    <path d="M999.95146,907.70262c24.83623-3.548,113.974-33.893,127.11392-50.26417C1012.6993,842.07035,888.18844,840.29,888.18844,840.29c-42.57639,8.87008-134.40626,56.40333-124.18113,56.76851C863.35222,900.60656,928.05693,908.36089,999.95146,907.70262Z" transform="translate(-740.42767 -499.6789)" style="fill: #fff200"/>
    <path d="M1665.5511,699.26921c-25.45461,16.02716-39.64692,48.71257-32.67558,77.97359s35.37212,52.34,65.44876,51.88972,58.24-25.39159,61.08808-55.33646c1.66217-17.47622-4.44-34.75388-11.89589-50.647-5.19977-11.084-11.32779-22.11372-20.73368-29.95087-24.76985-20.63866-61.6661-12.5071-92.56215-3.29114-28.59152,8.52856-57.24146,17.07767-84.8172,28.4702a440.75828,440.75828,0,0,0-148.39471,100.992c-1.68072,1.74216-3.44374,3.70922-3.59965,6.12493-.232,3.59421,3.09654,6.31131,6.16468,8.19777,22.3698,13.75418,48.9293,18.83575,75.00742,21.92079a592.08381,592.08381,0,0,0,201.89259-10.96441c16.21115-3.73187,33.05185-8.588,44.84329-20.32217" transform="translate(-740.42767 -499.6789)" style="fill: #fff200"/>
    <path d="M2507.86521,611.44192c-11.70936-51.85573,10.40673-75.36173,20.33787-70.18668,1.24414.64831,63.04089-.774,71.73664,29.6245,10.75288,37.58979-5.14772,65.39841-19.33985,83.13857C2576.3168,659.37215,2520.28332,666.43642,2507.86521,611.44192Z" transform="translate(-740.42767 -499.6789)" style="fill: #00aeef"/>
    <ellipse cx="1663.59902" cy="122.23106" rx="25.96935" ry="24.25467" style="fill: #00aeef"/>
    <ellipse cx="1580.27883" cy="134.82523" rx="25.72323" ry="24.83623" style="fill: #00aeef"/>
    <ellipse cx="1480.04692" cy="154.33941" rx="26.61024" ry="25.72323" style="fill: #00aeef"/>
    <ellipse cx="1381.58902" cy="172.07957" rx="29.27127" ry="26.61024" style="fill: #00aeef"/>
    <ellipse cx="605.96054" cy="326.51188" rx="19.51418" ry="26.61024" style="fill: #00aeef"/>
    <ellipse cx="530.94827" cy="335.28906" rx="23.94922" ry="25.72323" style="fill: #00aeef"/>
    <path d="M1686.49572,678.85453c23.28186-1.55212,72.73466,26.61025,74.50868,72.73467s-14.19213,70.96064-42.57639,79.83072c-13.65152,4.26611-83.77847-6.27868-86.92679-63.86458S1659.88548,680.62855,1686.49572,678.85453Z" transform="translate(-740.42767 -499.6789)" style="fill: #2e3192"/>
  </g>
</svg>
