<svg id="Layer_1" data-name="Layer 1" xmlns="http://www.w3.org/2000/svg" width="363.65971" height="69.19654" viewBox="0 0 363.65971 69.19654">
  <g id="calm_waves" data-name="calm waves">
    <g>
      <path d="M24.62577,256.07149l4.42813,18.36286c.68754,2.85119,1.4302,5.81448,3.31816,8.059,3.47809,4.135,9.58256,4.55554,14.98483,4.65844l18.418.35083c3.17291.06043,6.42014.13471,9.38486,1.26661,5.43075,2.07342,9.05288,7.33676,14.27511,9.89025,14.92139,7.29609,32.52066-10.49829,48.29428-5.295,3.38974,1.1182,6.54413,3.28638,10.11353,3.303,5.946.02756,10.10672-5.68469,15.36578-8.45923,7.96747-4.20343,17.81089-1.29016,25.78611,2.89856S204.63631,300.805,213.58,301.88222c7.6529.92179,15.26386-1.54236,22.57865-3.97348l15.815-5.25622c2.36154-.78489,4.81278-1.58033,7.28729-1.31669,2.94281.31354,5.49857,2.07123,8.22321,3.22654,17.42544,7.38879,38.24664-10.35935,55.54077-2.66819,3.38831,1.50687,6.38855,3.93418,9.98492,4.83826,8.32819,2.09366,16.38843-4.492,24.96381-4.94537,7.92548-.419,16.07129,4.41308,23.48035,1.568a4.44849,4.44849,0,0,0,2.27911-1.63193,5.42528,5.42528,0,0,0,.58753-2.60516l1.40313-25.45322c.1529-2.77392.21277-5.84472-1.57409-7.972a9.87622,9.87622,0,0,0-4.76551-2.69943c-12.75189-4.01923-27.05511-2.02045-39.2608-7.47812-2.84412-1.27173-5.59009-2.952-8.6792-3.35645-6.02893-.7894-11.457,3.3721-17.25812,5.19379-7.888,2.477-16.4544.56732-24.66485,1.53937-10.94553,1.29586-20.7898,7.64465-31.72287,9.04165-3.84772.49164-9.18082-1.095-8.75995-4.95111l-15.88349,4.81113c-.97827-4.69678-5.51168-7.85489-10.0885-9.29346s-9.47085-1.65253-14.03961-3.11645c-4.343-1.39158-8.29-3.88089-12.69147-5.07477-12.36929-3.3552-25.70047,4.03158-38.1387.94177-5.58163-1.38654-10.56454-4.813-16.24975-5.68207-4.19025-.64056-8.45081.158-12.61979.925q-17.93856,3.3002-35.99972,5.87994a196.34609,196.34609,0,0,1-26.2894,2.42969c-7.50812.05432-15.06286-.65771-22.498.38794s-14.98321,4.14966-19.37013,10.24307" transform="translate(-23.3803 -234.11539)" style="fill: #fff"/>
      <path d="M23.42041,256.4038l4.10012,17.00265c1.053,4.36664,2.07612,8.9231,5.89279,11.74,3.36806,2.48581,7.76044,3.01151,11.82443,3.19236,5.65624.2517,11.33444.23852,16.99518.34637,5.19372.09894,10.60541-.23911,15.1824,2.62726,3.86142,2.41824,6.84967,6.03558,10.9036,8.17926,6.97452,3.68808,14.84924,1.99124,21.95657-.35288,7.45014-2.45718,15.277-6.21615,23.32044-5.38971,4.54394.46689,8.274,3.39756,12.73907,4.04279,4.245.61343,7.86884-1.5271,11.12088-4.0015,3.60577-2.74356,6.99261-5.5047,11.6333-6.189,5.23605-.7721,10.6449.69693,15.43112,2.74444,9.09128,3.88916,16.9986,10.59531,26.91522,12.46131,10.82758,2.03741,21.56067-2.53168,31.6449-5.88324l7.24854-2.40909c2.89825-.96326,6.06488-2.36746,9.18313-1.89236,2.44181.372,4.58463,1.782,6.79822,2.78067a24.22071,24.22071,0,0,0,5.97428,1.84668c8.05181,1.3468,16.13415-1.00446,23.85375-3.06391,7.78229-2.07617,16.29151-4.47387,24.25885-1.9559,4.33588,1.3703,7.84632,4.59354,12.28022,5.70773,4.51135,1.13367,9.06488-.11725,13.329-1.61407,4.46441-1.56714,8.9292-3.47028,13.75354-3.29779,5.03534.18,9.83654,2.0379,14.85254,2.41592,3.536.26648,9.62988-.13049,10.72363-4.37481.61536-2.388.411-5.1547.54608-7.60535l.50671-9.19144.46772-8.4844a30.74771,30.74771,0,0,0-.02851-6.95685c-.86328-4.96082-5.14032-6.6015-9.52008-7.72739-9.96393-2.56143-20.43158-2.008-30.3916-4.57a40.56028,40.56028,0,0,1-7.29578-2.62219,33.90957,33.90957,0,0,0-6.626-2.73016c-4.70838-1.10391-9.13165.688-13.36176,2.59665a43.60162,43.60162,0,0,1-7.03033,2.727,34.73086,34.73086,0,0,1-8.01129.92944c-5.34552.09921-10.70121-.41064-16.021.33289-10.16489,1.42074-19.18683,6.89157-29.258,8.68-2.66574.47336-9.26794.75046-9.02413-3.46274a1.2593,1.2593,0,0,0-1.58231-1.20535l-15.88351,4.81112,1.53765.873c-1.39938-5.88492-7.04605-9.197-12.53357-10.61166-3.69882-.95352-7.52664-1.29688-11.214-2.30118-3.439-.93665-6.58176-2.619-9.85434-3.98892-6.48505-2.71472-13.02106-2.67118-19.88135-1.69226-6.95389.99228-14.14923,2.81512-21.17948,1.43765-6.84146-1.34048-12.64355-5.81357-19.74017-6.18793a48.857,48.857,0,0,0-11.31436,1.23578q-5.98019,1.09671-11.97421,2.11548-12.1638,2.06529-24.3808,3.80054a191.76883,191.76883,0,0,1-24.893,2.28064c-14.82359.15493-33.20131-2.37442-43.30447,11.25384-.95883,1.29337,1.21007,2.54138,2.15868,1.26181,8.75184-11.80545,25.42878-10.15808,38.32371-10.01864,15.43161.16687,30.87134-2.59348,46.0571-5.05494,7.569-1.22686,15.09457-2.74987,22.669-3.93011a25.41171,25.41171,0,0,1,11.30145.39658c3.16046.93692,6.10949,2.44418,9.16958,3.64746,6.22092,2.44616,12.493,2.43545,19.0308,1.52575,6.51745-.90686,13.11865-2.54391,19.73776-1.78283,3.90729.44928,7.40591,2.04837,10.95178,3.64782a46.42159,46.42159,0,0,0,10.9306,3.43131c6.5001,1.18545,15.69474,2.486,17.52863,10.19839a1.26355,1.26355,0,0,0,1.53766.873l15.88351-4.81113-1.5823-1.20535c-.19525,3.37433,2.76657,5.341,5.74734,5.98,4.13028.88544,8.537-.39514,12.47577-1.59766,4.792-1.463,9.40994-3.43,14.16989-4.9877a48.66265,48.66265,0,0,1,15.2197-2.5375c5.11645-.01325,10.25351.399,15.33417-.40787,4.92681-.78247,9.08264-3.30878,13.70159-4.98645a14.2026,14.2026,0,0,1,7.2884-.9838c2.5697.45121,4.861,1.794,7.19958,2.87375a50.69679,50.69679,0,0,0,14.04871,3.91761c4.89422.71408,9.8316,1.04556,14.73877,1.64947a74.45731,74.45731,0,0,1,7.71521,1.31351c2.25512.5224,4.97174,1.05392,6.87048,2.45321,2.18842,1.61277,2.30432,4.38883,2.22778,6.87323-.08423,2.73151-.29138,5.46433-.44177,8.19281l-.93542,16.96881c-.08143,1.47739.1314,3.17124-1.28431,4.08271a9.359,9.359,0,0,1-3.79089,1.12414,23.6176,23.6176,0,0,1-7.24115-.51776c-4.61438-.8887-9.25116-2.28042-13.999-1.76047-9.18769,1.00623-17.74768,8.24344-26.97388,3.52323-3.84454-1.96689-7.27649-4.24179-11.60059-5.02823a34.543,34.543,0,0,0-11.3034.05035c-8.13153,1.209-15.86267,4.24927-23.98511,5.50342a30.07428,30.07428,0,0,1-11.907-.23584c-4.2843-1.08111-7.964-4.2392-12.47653-4.4061a20.12974,20.12974,0,0,0-6.94535,1.40778c-2.85785.94183-5.711,1.8981-8.56646,2.84711-5.2222,1.73562-10.42588,3.63458-15.75473,5.02112-5.37037,1.39733-10.939,2.09646-16.4097.831-4.8899-1.13117-9.36512-3.471-13.71494-5.90482-8.19342-4.58435-16.91446-9.9396-26.70248-9.28537a21.55463,21.55463,0,0,0-11.80359,4.74823c-3.16971,2.40293-6.60062,5.74549-10.84674,5.713-4.54993-.03479-8.50232-3.33576-12.98972-4.01105a29.06058,29.06058,0,0,0-10.97955.722c-7.68186,1.8111-14.8497,5.58493-22.68668,6.77652A18.85273,18.85273,0,0,1,90.06566,297.58c-3.95987-1.92582-6.90463-5.3472-10.48791-7.82929-3.99338-2.76614-8.40808-3.37622-13.16751-3.48569-5.64215-.12979-11.28568-.21545-16.9283-.32293-4.33031-.08249-9.11669.10037-13.093-1.89685-4.74891-2.38529-5.57182-7.62943-6.70382-12.32373L25.831,255.73906c-.377-1.56332-2.78832-.90133-2.41071.66462Z" transform="translate(-23.3803 -234.11539)" style="fill: #58595b"/>
    </g>
  </g>
</svg>
