<?xml version="1.0" encoding="utf-8"?>
<!-- Generator: Adobe Illustrator 25.2.0, SVG Export Plug-In . SVG Version: 6.00 Build 0)  -->
<svg version="1.1" id="Layer_1" xmlns="http://www.w3.org/2000/svg" xmlns:xlink="http://www.w3.org/1999/xlink" x="0px" y="0px"
	 viewBox="0 0 377.1 49.7" style="enable-background:new 0 0 377.1 49.7;" xml:space="preserve">
<style type="text/css">
	.st0{fill:#ED1C24;}
	.st1{fill:#FFF200;}
</style>
<g id="calm_waves">
	<g>
		<path class="st0" d="M375.8,37.3c-11.1,3.3-22.8,4-34.3,2.2c-8.2-1.3-16.2-3.9-24.5-3.3c-6.8,0.5-13.2,3.2-20.1,3.1
			c-6.2-0.1-11.9-2.4-17.8-3.6c-11.5-2.3-23.8-0.6-35.2,2s-22.5,6.1-34.4,7.3s-24.9-0.3-33.5-6.4c-4.5-3.2-7.6-7.6-13-9.9
			c-9.4-4.1-21.4-0.6-31.5,2.4c-10,3-20.3,5.6-30.8,7.7c-8.5,1.7-17.6,3.1-25.9,0.9c-7.1-1.8-12.9-6-20.2-7.1
			c-8.2-1.2-16.5,1.6-23.3,5.2s-13,8-20.6,10.4L1.2,18.8c5.7-4.4,15.6-5.5,22.8-2.6c2.2,0.9,4.1,2.1,6.5,2.7
			c2.6,0.5,5.2,0.5,7.9,0.1c12.2-1.2,24.1-4.4,35.4-9.3c9.8-4.3,20.4-10.3,31.5-8c10,2.1,16.6,10.4,27,10.9
			c3.5,0.2,6.9-0.6,10.4-0.7c9.9-0.3,18.3,4.7,27.4,7.6c12.7,3.9,26.2,4,38.9,0.2c3.4-1,6.8-2.4,10.5-2.5c8.4-0.1,14.1,6.1,21.9,8.5
			c6.9,2.1,14.8,0.8,21.6-1.4s12.9-5.5,19.8-7.6c12.3-3.7,25.4-3.8,37.8-0.3c8.6,2.5,16.2,6.7,24.7,9.4s18.9,3.8,26.7,0L375.8,37.3z
			"/>
		<path class="st1" d="M375.5,36.1c-12.4,3.6-25.5,4.1-38.1,1.4c-6.3-1.3-12.7-2.8-19.2-2.6c-6.3,0.3-12.2,2.5-18.4,3.1
			c-6.5,0.5-12.6-1.7-18.9-3.2c-6.2-1.4-12.6-1.8-19-1.2c-12.9,1-25.2,4.9-37.7,7.7c-11.9,2.7-24.4,4.3-36.4,1.2
			c-5.4-1.3-10.3-4-14.5-7.7c-4-3.6-7.8-7-13.1-8.4c-11.6-3-23.9,2.1-34.9,5.2c-6.4,1.8-12.8,3.4-19.3,4.8
			C99.6,38,93,39.4,86.3,39.7c-6.4,0.2-12.8-1-18.6-3.7c-5.2-2.3-10.4-4.5-16.1-4.7C39.3,30.8,29.3,38,19,43.5
			c-2.8,1.5-5.7,2.8-8.7,3.8l1.5,0.9L2.4,18.5l-0.6,1.4c4.5-3.4,10.3-4.5,15.8-3.9c3,0.4,5.9,1.3,8.6,2.7c2.7,1.3,5.7,2,8.8,1.9
			c6.6-0.3,13.2-1.4,19.6-3c6.4-1.5,12.7-3.6,18.8-6.2c11.7-5,24.1-12.2,36.9-6.5c4.8,2.2,9.1,5.4,14.1,7.4c2.4,1,4.9,1.6,7.5,1.8
			c3.5,0.2,6.9-0.5,10.3-0.7c6.6-0.3,12.8,2,18.8,4.3c5.9,2.3,11.8,4.4,18.1,5.4c6.5,1,13,1.1,19.5,0.2c3.1-0.4,6.2-1,9.3-1.9
			c3.3-0.9,6.5-2.4,10-2.7c6-0.6,11,2.6,16.1,5.4c5.2,3,11.1,4.3,17,4c13.3-0.8,24.6-8.8,37.5-11.5c13.4-2.8,26.9-1.1,39.5,4
			c11.7,4.7,23.4,10.6,36.4,8.8c2.7-0.4,5.4-1.1,7.9-2.3l-1.8-0.7l4.1,11.5c0.5,1.5,3,0.9,2.4-0.7l-4.1-11.5
			c-0.2-0.7-0.9-1.1-1.6-0.9c-0.1,0-0.2,0.1-0.2,0.1c-12.1,5.7-26,0.1-37.4-4.7c-6-2.5-12-4.9-18.4-6.2c-6.4-1.2-13-1.6-19.6-1
			c-6.4,0.6-12.7,2.1-18.7,4.5c-6.3,2.4-12.3,5.4-18.9,7c-6.5,1.6-13.4,1.8-19.5-0.9c-4.9-2.2-9.4-5.6-14.7-6.9
			c-6.4-1.5-12.1,1.2-18.2,2.8c-12.9,3.2-26.5,2.5-39-2.2c-5.9-2.2-11.7-4.9-18-5.9c-3.1-0.5-6.2-0.5-9.2-0.2
			c-3.3,0.3-6.7,0.8-10,0.1c-5.4-1.1-9.9-4.3-14.7-6.9c-5-2.7-10.2-4.4-16-4.1c-6.3,0.3-12.3,2.6-18,5.2c-6,2.9-12.2,5.4-18.6,7.6
			c-6.4,2-13,3.5-19.7,4.5c-3.4,0.5-7.1,1.1-10.6,0.6c-3.2-0.5-5.8-2.3-8.8-3.3c-5.1-1.6-10.6-1.7-15.7-0.2
			c-2.4,0.7-4.7,1.8-6.8,3.3C0.1,18-0.1,18.6,0,19.1l9.4,29.6c0.2,0.7,0.9,1,1.5,0.9c11.4-3.8,20.7-12.2,32.4-15
			c6.2-1.5,12.7-0.9,18.5,1.6c5.5,2.2,10.7,4.9,16.6,5.7c6.2,0.8,12.4,0.1,18.5-0.9c6.6-1.1,13.1-2.6,19.6-4.3
			c6.2-1.6,12.4-3.4,18.6-5.2c5.9-1.7,11.9-3.3,18-3.3c5.9,0,11.7,2.3,16,6.4c3.9,3.4,7.5,6.6,12.4,8.6c10.5,4.4,22.5,4.2,33.6,2.5
			c12.9-2,25.4-6.3,38.3-8.5c6.4-1.1,13-1.5,19.5-1c6.5,0.6,12.5,2.9,18.9,4c6.2,1,12-0.2,18.1-1.5c6.5-1.4,13.2-1.5,19.7-0.1
			c6.3,1.2,12.5,2.7,18.9,3.1c6.1,0.4,12.3,0.1,18.4-1c3.1-0.5,6.1-1.2,9.1-2.1c0.7-0.2,1-0.9,0.8-1.6
			C376.8,36.3,376.1,35.9,375.5,36.1L375.5,36.1z"/>
	</g>
</g>
</svg>
