<?xml version="1.0" encoding="utf-8"?>
<!-- Generator: Adobe Illustrator 25.2.0, SVG Export Plug-In . SVG Version: 6.00 Build 0)  -->
<svg version="1.1" id="Layer_1" xmlns="http://www.w3.org/2000/svg" xmlns:xlink="http://www.w3.org/1999/xlink" x="0px" y="0px"
	 viewBox="0 0 4610.6 2813.4" style="enable-background:new 0 0 4610.6 2813.4;" xml:space="preserve">
<path class="st0" d="M1681.3,975.7c11.6-1.3,23.3,0,34.3,3.7c0.6,8.5,0.5,16.9-0.3,25.4c8.1-0.8,16.2-2.5,23.9-5
	c-2.6-6.2-4.5-12.7-5.7-19.4l11.9-4c1.6-0.5,9,19.3,9.3,27.5l16.1-6.5l-9.9-65.9l-39.8,2.1c3.1-30.3,1.9-60.9-3.5-90.9
	c-16.8-1.3-33.8,0.6-49.9,5.6c42.9-57.8,76.2-122.7,100.6-191.3l-21.2-97.7c19.5,7.9,39.9,13.3,60.8,16.3
	c13.4,1.9,28.1,2.5,39.4-4.9c1.9,7.3,4,14.9,8.8,20.8s13,9.8,20.1,7.1c-0.8,12.8-28.8,16.9-48.7,15.5c-16.6-1.2-52.5-27.6-58.5-29.9
	c2.3,8,4.5,34.4,3.6,42.7c-0.9,8.3,3.5,20.3,8,32c33.5,63.2,76.9,120.5,128.7,169.9c-15.2,0.1-30.3,2.5-44.8,7.1
	c2.2,31.9,8.9,63.2,19.9,93.2l-39.7,11.6l6.2,59.7l22.8,0l-4.6-22.4l25.4-7.8c4.4,9.9,6.5,20.6,6.1,31.5c11.7,0.4,23.5-0.9,34.9-3.7
	c2.6-0.7,2.4-55.4,3.6-77.3c1.4-26,9.1-51.4,11-77.4c1.8-27-2.2-54-11.7-79.3c-13.9,3.7-28.4,4.3-42.5,1.6
	c56.9-54.8,84.8-138.1,72.4-216.1c19.9,39.6,5.8,88.2,17.8,130.8c8.9,31.6,31.3,57.4,45.7,86.9l-17.3,2.5c2.3,6.6,2.9,13.6,1.6,20.5
	c22.3-4.8,44.2-11.4,65.5-19.7l-2.1-206.6l-51.7-4c44.8-51.6,104.6-117.3,101.7-185.6c-1.6-38.8-1-41.8,0.6-53.1
	c1.2-8.2,10.8-35.7,56.4-35.2c27.2,0.3,37.6,21.1,49.3,29.4c31.4,22,49,13.1,84.6-1.2c-5.7,19.2-59.9,43.5-94,45.8
	c-48.8,3.4-47-52.8-88.1-37.6c7,51.7-4.3,10.3,4.1,55.2c1.2,6.3,26.5,54,46.9,85.6c14.5,22.6,60.9,73.2,66.2,79.2
	c21.6,24.4,0,22.6-41.7,36.3c5.3,10.5,9,21.7,10.8,33.3c7.1,1.8,14.4,2.3,21.7,1.6c2.5,13,4.5,26.1,6.2,39.2
	c0.2,1.5-21.3,5.1-34.1,7.5c-4.8,12-4.9,32.4-3.2,45.2c3,22.8-1.4,45.2,0.2,68.1c0.5-0.8-1.7-0.8-1.4,0.1c0-0.2,0-0.4,0-0.6
	l17.7,1.6c-0.3-10.3,1.9-20.5,6.4-29.8c5.7-0.1,11.4-1.5,16.4-4.3l5.2,32.4l6.2-34.6c9.3,2.4,19.1,1.8,28-1.9
	c5,17.6,7.4,35.8,7.1,54.1l-1.6,33.9c-13.8-6.4-30.5,5.2-35.4,19.6s-1.5,30.2,1.6,45.1c16.1,76.8,24,155.1,23.5,233.6
	c27.3,3.9,55.1,1.2,81.1-7.7c2.3-0.8-0.1-49.5-3.4-68.7c-8.3,0.8-15.8-5.5-19.3-13.1c-3.5-7.5-3.8-16.1-4.4-24.4
	c-1.7-24.4-5.8-48.6-9.8-73l4.9-16.8l-28.8,4.8c31.3-28.9,49.5-70,57.4-111.9s6.3-85,3.3-127.5c18.1-10.1,40.2,3.1,55.4,17.1
	s32.2,30.9,52.8,28.6c5.9-0.6,12.1-2.8,17.5-0.4c4.1,1.8,6.7,5.9,10.1,8.9c9.7,8.5,26.9,5.7,33.4-5.4c-4.7,13.4-13.8,24.8-25.7,32.3
	c-4.4,2.8-9.5,5-14.7,4.2c-4.3-0.7-8.1-3.4-12.3-4.2c-10.4-1.9-19.2,7.6-29.3,10.5c-14.6,4.3-29.6-5.6-40.1-16.7
	s-19.6-24.5-33.6-30.5c-2.7,38.3-5.3,77,2,114.7c7.3,37.7,25.9,56.6,57.5,78.2c-9.5-1.1-24.4,1.1-33.9,0
	c2.9,12.4,15.4,58.6,17.8,60.6c5.7,5,15.3-0.5,22,3c5.7,2.9,6.6,10.5,6.8,16.9c0.5,16.4,1,32.7,1.5,49.1c-11-2.6-22.4-3.4-33.6-2.2
	l6.8,53.1c-5.4-0.8,14.2,2.9,9.3,5.2c5.1-10.6-2.9-31.9-3.2-43.6c9.4,6.6,19.8,2.8,27.5,11.3c1.7,1.9,1.2,32.2,4.9,46.2
	c1.8-12.7,11.9-5.5,24.2-9c-1-10.7-2.9-39.8-5.2-50.3c11.5,4,24.1,3.6,35.4-1l2,64.1c8.7-11.8,23-18.2,37.6-16.8
	c2.7-15.5,3-31.3,1.1-46.9c13.4,2.9,27.3-0.3,38.1-8.8c-8.9,21-16.3,42.6-22.3,64.7c-12.2,45-18,91.3-23.9,137.5
	c-7.2,57-14.4,114-20.6,169.7c-110.9,11.8-222.4,16.8-333.9,15c-11.5-88.4-23.1-177.4-50.3-262.4c-8.6-26.8-23.8-57.3-51.8-60.3
	c-23.7-2.5-43.8,16.7-57.8,35.9c-52.7,72.2-67.4,197.4-45.8,284.1c-84-27.5-280.3-28.6-281.3-33.4c-11.8-51.9-23.7-139.1-29.7-192
	C1679.3,1165.6,1688.3,1005.3,1681.3,975.7z M2177,727.3c-5.3-25.1-8.8-50.6-10.6-76.2c-1.3-19.7-2.3-41.3-15.5-56.1
	c-12.6,16.7-18.9,37.5-21.3,58.3c-2.4,20.8-1.1,41.8,0.2,62.7C2149.6,717.8,2163.8,721.4,2177,727.3z M1784.1,984.2
	c11.3-7,25.7-6.3,36.2,1.9c-1.1-23.1,0.3-59.4-20.7-64.3C1785.1,931.6,1787,983.3,1784.1,984.2z M2392.3,1012.1
	c-3.9-16.4-7.7-32.8-11.6-49.1c-0.6-2.6-1.7-5.7-4.3-6.4c-4.4-1.2-6.7,5.2-6.6,9.8c0.2,13.7,1.8,27.3,4.8,40.7
	C2380.9,1012.7,2386.6,1012.9,2392.3,1012.1z M1832.2,1135.5c-2.8,24.9-0.1,50.1,7.8,73.8l58.6-7.3c-3.9-27.7-8.5-55.3-13.7-82.8
	C1865.9,1119.9,1846.9,1123.8,1832.2,1135.5z M2243,1206.6l5.4,72.4c0,0.8,0.2,1.6,0.7,2.3c1,1.2,2.9,0.8,4.4,0.3
	c21.3-7.3,43.6-11.3,66.1-11.9l-4-83.1C2286.8,1190.6,2257.9,1193.2,2243,1206.6z M1926.3,1155.7c-2.5,11-2.9,22.3-1.1,33.4
	c10.3-6.9,22.8-9.6,35-7.5c-3.2-10.8-5.3-22-6.1-33.2C1943.3,1153.3,1931.7,1156.3,1926.3,1155.7L1926.3,1155.7z M2169.6,971.9
	c0,0-21-143.8-79.2-137.3s-56.6,148.7-56.6,148.7L2169.6,971.9z" style="fill:#EC008C;stroke:#FFFFFF;stroke-width:0.4965;stroke-miterlimit:10;"/>
</svg>
