<svg version="1.1" id="single_cloud" xmlns="http://www.w3.org/2000/svg" xmlns:xlink="http://www.w3.org/1999/xlink" x="0px"
	 y="0px" viewBox="0 0 550.2 332.7" style="enable-background:new 0 0 550.2 332.7;" xml:space="preserve">
	<style type="text/css">
		.st011{fill:#EC008C;}
	</style>
	<path class="st011" d="M406,218.3c8.5,1.4,39.4-1.1,39-23.8c-0.5-30.4-32-32.9-41.6-35.4c10.6-34.7-36.7-96.9-63.3-109.2
		c-39.6-18.3-75.8,5.9-85.3,13.4c-11.5,9-13.6,25.2-14.2,39.8c-0.7,16.7,1,36.6,15.4,45.2c-10.4-9.9-32.5-16.4-46-11.4
		c-20.7,7.7-23.8,34.4-25,35.6c-1.2,1.2-79.4-11.7-73.4,67c3.2,41.7,51.5,46.4,67.8,44.9s32.8-9.5,41.5-23.4
		c16,22.3,42.4,36.8,69.8,38.5c14.7,0.9,37.2-24.7,39.8-25.6c1-0.3,35.7,6.4,52.2,5.9c16.5-0.5,34.1-7.1,42.3-21.4
		c8.2-14.4,1.6-36.6-14.6-39.9L406,218.3z" style="fill: #00a65182;"/>
</svg>
