<?xml version="1.0" encoding="utf-8"?>
<!-- Generator: Adobe Illustrator 25.2.0, SVG Export Plug-In . SVG Version: 6.00 Build 0)  -->
<svg version="1.1" id="single_cloud" xmlns="http://www.w3.org/2000/svg" xmlns:xlink="http://www.w3.org/1999/xlink" x="0px"
	 y="0px" viewBox="0 0 550.2 332.7" style="enable-background:new 0 0 550.2 332.7;" xml:space="preserve">
<style type="text/css">
	.st0{fill:#ED1C24;}
	.st1{fill:#FFF200;}
	.st2{fill:none;}
</style>
<g>
	<g>
		<path class="st0" d="M32.2,258.1c-6.9,2.3-14.2,4.6-20.8,0.5s-12-17.1-9.6-28.6c2.6-12.6,12.1-15.5,19.7-13.6s15.5,6.5,22.6,1.4
			c11.9-8.4,14.3-38.5,25.8-48.6c11.9-10.4,26,6.2,39.2,3.2c12.7-2.8,22.6-23.3,35.4-24.3c4.5-0.3,9.2,1.8,13.4-1.1
			c13.1-9.1,5.2-50.5,16.8-64.5c9-10.9,21.1,4.4,32,2.6c12.3-2,19.7-24.1,25.3-43.3s14-40.9,26.3-40.5c5.9,0.2,11.3,5.6,16.4,10.8
			c10.2,10.6,22.1,28.4,17.8,47.8c1.9-18.2,16.6-25.1,25.5-15s12.1,30.6,11.4,49.1c-0.2,5.5-0.6,11.6,1.4,15.9
			c1.2,2.6,3.5,4.6,6.3,5.2c6.8,1.8,14-0.6,19.9-6.9c2.5-2.7,5.4-6.1,8.1-4c1.4,1.1,2.3,3.5,3.6,5.2c5,7.1,12.6,0.2,18.9,2.4
			c3.5,1.2,6.4,5.2,9.7,7.7c6.4,4.9,13.6,3.9,20.5,3.1s14.3-1.2,20.4,4.5c6.1,5.7,10.2,19.9,6.8,30.5l87.8,68.8
			c8.7,6.8,19,20.5,15.2,35.7c-1.9,7.8-7,11.6-11.6,14c-10.6,5.7-22.7,8.2-34.7,7.1c-10.4-1-20.8-4.8-31-1.8
			c-7.4,2.2-14.3,7.8-21.3,12.4c-15.6,10.2-32,15.4-48.4,20.6c-7.7,2.4-16,4.7-22.9-1.8c-6.7-6.4-11-20.3-18.4-23.3
			c-2.8-1.1-5.7-0.6-8.6,0l-41.1,8.5c-14.2,2.9-28.8,6.1-41,18.9c-6.7,7-13.8,17.3-21.4,14.2c-7.1-2.8-11-15.6-15.4-25.7
			c-12-27-34.3-38.3-52.6-26.8c-11.1,6.9-21.7,21.5-33.4,17.8c-9.5-3-16.6-17.5-25.9-21.6c-8.7-3.8-17.7,1.9-26.4,5.3
			c-15.8,6.1-32.5,4.4-47.8-4.9l-12.2-13.6"/>
		<path class="st1" d="M31.9,256.9c-5.5,1.8-11.8,4-17.5,1.8c-5-1.9-8-6.8-9.8-11.5c-3.3-8.7-3.6-22.4,5.4-28
			c8.1-5.1,16.5,1.2,24.8,2.1c8.5,0.9,13.9-4.9,17.5-11.8c3.8-7.3,6.1-15.2,9-22.8c2.6-6.8,6.2-16.4,13.8-19
			c8.1-2.7,16.8,3.5,24.4,5.5c7.8,2.1,14.2-0.1,20.3-5.2c6.4-5.3,11.6-12.6,19.1-16.7c4.4-2.4,8.2-1.6,12.9-1.4
			c3.6,0.2,7.1-1.3,9.4-4.1c3.8-4.7,4.9-11.4,5.7-17.2c1.1-7.7,1.4-15.4,2.2-23.1c0.7-6.9,1.6-14.6,5.4-20.5
			c5.5-8.6,14-3.6,21.3-0.6c6.8,2.8,13.3,3.2,19-2.1c6.3-5.8,9.8-14.7,12.8-22.6c3.7-10,6.2-20.5,9.9-30.5c3-8.3,6.8-18.7,14.2-24.2
			c9.4-7,18.8,4.1,24.7,10.7c6.8,7.6,12.4,16.8,14.8,26.8c1.3,5.6,1.4,11.5,0.3,17.2l2.4,0.3c0.8-7,4-15.4,11.3-17.9
			c6.9-2.3,12.2,3,15.3,8.6c4.5,8,6.4,17.6,7.3,26.7c0.5,4.8,0.7,9.7,0.6,14.5c-0.1,4.7-0.5,9.4,0.2,14.1c0.6,3.7,2.1,7.3,5.5,9.3
			c3.2,1.7,6.8,2.2,10.3,1.6c3.9-0.6,7.6-2.3,10.7-4.9c1.7-1.5,3.3-3,4.9-4.7c0.8-0.8,2.1-2.3,3.2-2.4c2-0.1,2.8,2.1,3.6,3.4
			c1.8,3,4.1,5.4,7.8,5.6c3.7,0.2,7.3-1.6,11-1.3c4.7,0.4,7.8,5.2,11.3,7.9c3.5,2.6,7.8,4,12.1,4c10.2,0.3,21.8-4.4,29.7,4.6
			c6.3,7.2,8.2,19.2,5.5,28.2c-0.1,0.4,0,0.9,0.3,1.2l72.5,56.7c9.8,7.7,21.2,14.8,27.2,26.1c5.7,10.8,5.4,25.5-5.9,32.5
			c-11.7,7.3-26.3,9.7-39.9,7.7c-6.8-1-13.5-2.7-20.4-2.4c-6.6,0.3-12.4,2.8-18,6.3c-6,3.8-11.7,8.1-17.9,11.5
			c-6.2,3.4-12.7,6.4-19.3,8.9c-6.3,2.4-12.7,4.5-19.1,6.5c-5.6,1.8-11.7,4.2-17.7,3c-10.8-2.2-13.9-16-20.5-23.4
			c-3.4-3.8-7.4-5.1-12.5-4.2c-7.3,1.3-14.6,3-21.9,4.5c-12.9,2.7-26.3,4.6-38.8,8.9c-5.6,1.8-11,4.5-15.8,7.9c-5,3.5-9,8-13.1,12.5
			c-3.2,3.6-8.3,9.8-13.8,8.7c-5-1-7.8-6.9-9.8-11c-5.1-10.6-8.5-21.5-16.1-30.7c-5.9-7.2-13.9-13.3-23.1-15.1
			c-9.1-1.8-17.6,1.1-24.8,6.5c-4.6,3.4-8.7,7.4-13.3,10.7c-4.3,3.1-9.5,6.2-14.9,4.8c-5-1.2-8.8-5.5-12.1-9.1
			c-3.4-3.7-6.7-7.6-10.8-10.6c-11.1-7.9-22.5,0.5-33.4,4.1c-13.2,4.2-27.5,3-39.8-3.3c-6.7-3.4-11.3-10.3-16.3-15.8
			c-1.1-1.2-2.8,0.6-1.8,1.8l7.9,8.8c1.2,1.3,2.4,2.7,3.6,4c1.3,1.2,2.8,2.2,4.4,3c6,3.2,12.5,5.3,19.2,6.2c6,0.8,12.1,0.6,18-0.7
			c6.9-1.5,13-4.8,19.6-7.2c6.8-2.4,13.1-2.3,18.8,2.4c4.1,3.4,7.5,7.7,11.2,11.5c3.2,3.2,6.9,6.5,11.5,7.5c4.7,1,9.3-0.8,13.3-3.2
			c9.2-5.7,16.3-15.3,27-18.4c9.6-2.7,19.4,0.6,27,6.8c9.7,7.9,15,18.9,19.7,30.2c2.9,7,7.6,20.8,17.5,19.4
			c5.1-0.7,9.2-5.2,12.5-8.8c4.6-5,8.9-10,14.7-13.7c10.4-6.9,22.7-9.3,34.7-11.7l23.2-4.8l10.5-2.2c3.8-0.8,8.6-2.5,12.3-0.8
			c4.5,2.1,7.3,7.6,9.7,11.7c2.6,4.4,5.2,9.2,9.4,12.4c9.5,7.4,22.8,1,32.7-2.3c13.3-4.4,26.4-9.6,38.2-17.2
			c5.8-3.7,11.2-8.1,17.5-11c7.5-3.4,15.4-2.7,23.2-1.4c6.8,1.1,13.5,2.3,20.4,1.9c6.7-0.4,13.3-1.9,19.6-4.4
			c4.9-2,10.1-4.3,13.8-8.2c3.7-4.2,5.8-9.6,5.9-15.2c0.5-11.2-5.8-21.8-13.8-29.1c-5.3-4.9-11.4-9.1-17.1-13.5l-17.9-14l-37.5-29.4
			l-17.9-14l0.3,1.2c2.5-8.3,1.2-17.9-2.7-25.6c-4.1-8-11.6-11.7-20.4-11.4c-5,0.2-9.9,1.3-14.9,1.1c-6.2-0.3-10.1-3.4-14.5-7.4
			c-3-2.7-6-4.8-10.2-4.4c-4,0.3-9,2.8-12.5,0c-2.7-2.2-3.7-8.3-8.2-7.8c-4.3,0.5-7.3,6-10.6,8.4c-4.2,3-9.4,4.5-14.5,3.3
			c-6-1.5-7.2-7.1-7.3-12.5c-0.1-5.2,0.3-10.4,0.2-15.6c-0.1-5.1-0.6-10.1-1.4-15.2c-1.4-8.6-3.7-17.8-9-24.9
			c-4.1-5.5-10.5-8.6-17.1-5.7c-7.7,3.4-11,12-11.9,19.8c-0.2,1.4,2.2,1.7,2.4,0.3c4.4-21.3-9.1-42.9-25.3-55.8
			c-3.4-2.7-7.5-5-12-4.3c-3.4,0.6-6.4,2.4-8.7,4.9c-6.7,6.8-10.3,16.6-13.4,25.5c-3.6,10.5-6.2,21.3-10.3,31.6
			c-3,7.5-7.6,19-16.3,21.5c-8.2,2.3-15.8-5.3-23.7-6.2c-7.5-0.8-12,5.4-14.2,11.7c-5.3,15-2.8,31.5-6.8,46.7
			c-0.7,3.1-2,5.9-3.8,8.4c-3.8,4.5-9.1,2.4-14.1,2.7c-8,0.4-14.2,7.1-19.5,12.3c-6.2,6.1-13,13.7-22.6,12.1
			c-8.4-1.4-16.1-7.4-24.9-6.8c-8,0.6-12.8,7.4-15.9,14c-3.8,7.9-6.1,16.3-9.4,24.3c-1.4,3.8-3.4,7.3-5.7,10.6
			c-3.2,4.3-8.7,6.3-13.9,5c-8.2-1.7-16.2-6.4-24.2-1.4c-7.8,4.9-9.6,15.4-8.3,23.8c1.3,8.9,6.3,19.2,16,21c5.5,1,11-0.8,16.2-2.5
			C34.1,258.8,33.4,256.4,31.9,256.9L31.9,256.9z"/>
	</g>
	<g>
		<path class="st2" d="M180.6,196c-1.8-9.1,0.5-19.5,4.5-26c3.3-5.5,8.6-9.6,14.8-11.2c11.3-3.2,23.2,0,33.4,9.2
			c1.6,1.3,2.7,3.2,3.1,5.2c0.4,2.4-0.4,4.8-1,7c-3.8,12.5-6.5,25.2-8.2,38.1"/>
		<path class="st1" d="M181.8,195.6c-1.5-8.1-0.2-16.6,3.7-23.9c3.8-6.8,10.5-11.5,18.2-12.6c8.1-1.4,16.3,0.9,23.1,5.3
			c1.9,1.3,3.8,2.7,5.5,4.2c1.4,1.1,2.4,2.6,2.8,4.2c0.5,2.3-0.2,4.7-0.9,7c-0.7,2.2-1.3,4.4-1.9,6.6c-2.8,10.5-4.9,21.1-6.3,31.8
			c-0.2,1.6,2.3,1.6,2.5,0c1.4-10.4,3.4-20.6,6.1-30.7c0.7-2.5,1.4-5,2.1-7.4c0.8-2.2,1.1-4.6,1-6.9c-0.6-4.3-4.3-7-7.5-9.4
			c-7.1-5.2-15.9-8.2-24.7-7.3c-8.3,0.8-15.8,4.7-20.6,11.6c-5.5,8-7.2,18.9-5.4,28.3C179.7,197.9,182.1,197.2,181.8,195.6
			L181.8,195.6z"/>
	</g>
	<g>
		<path class="st2" d="M273.9,190c-4.2-8.6-3.6-22.2,0-31.6c3-7.9,8.5-14.7,15.5-19.4c3-2.1,6.3-3.9,9.6-3
			c4.7,1.3,8.2,7.9,11.1,14.4c7.6,17.1,13.5,34.8,17.7,53c6.4,3.7,13.7,1.7,19.2-5.2c4.1-5.3,7.2-13.2,11.8-17.1
			c9.1-7.6,21.3,8.2,19.8,25.6c17.3-17.2,39-2.6,56,15.5c2.7,2.8,5.5,6.3,6.2,11.6s-2.5,11.8-5.2,9.2"/>
		<path class="st1" d="M274.9,189.4c-3.1-6.4-3.2-14.1-2.3-21c1-7.4,3.9-14.5,8.6-20.3c2.2-2.6,4.6-4.9,7.3-6.9
			c2.8-2.1,6.9-5.3,10.6-3.8c3.1,1.2,5.2,4.7,6.7,7.4c2,3.6,3.7,7.3,5.3,11.2c3.3,7.8,6.2,15.8,8.8,23.9c1.3,4.2,2.6,8.4,3.7,12.7
			c0.6,2.1,1.1,4.2,1.7,6.4c0.2,1,0.5,2,0.7,3c0.2,1,0.3,2.1,1.2,2.7c5.8,3.8,13.3,1.6,18-2.8c5.4-5,7.6-12.4,12.4-18
			c1.6-1.8,3.6-3.5,6.1-3.5c2.3,0.2,4.4,1.2,6,2.9c4.7,4.5,7,11.4,7.4,17.8c0.1,1.9,0.1,3.8,0,5.6c0,0.7,0.6,1.2,1.3,1.2
			c0.3,0,0.6-0.1,0.8-0.3c4.1-4,9.2-6.9,15-7.2c5.4-0.3,10.7,1.3,15.4,3.6c5.5,2.9,10.6,6.4,15.1,10.6c2.5,2.2,4.9,4.5,7.2,6.9
			c2,1.9,3.8,4,5.3,6.3c1.7,2.8,2.5,6,2.1,9.3c-0.1,0.8-1.5,6.4-3.1,5c-1.2-1-3,0.7-1.8,1.8c1.9,1.7,4.1,0.8,5.4-1.2
			c1.6-2.6,2.3-5.7,1.9-8.8c-0.8-6.9-5.6-11.7-10.3-16.4c-5.1-5.3-10.9-9.9-17.1-13.8c-5.4-3.2-11.5-5.8-17.9-6
			c-7.3-0.3-13.9,2.9-19.1,8l2.1,0.9c0.5-6.2-0.6-12.4-3.2-18.1c-2-4.1-5-8.4-9.4-10.1c-4.4-1.7-8.5,0.4-11.3,3.8
			c-3.9,4.7-6.1,10.5-9.9,15.3c-4.3,5.3-11,8.3-17.4,4.7l0.6,0.7c-2.5-10.7-5.5-21.3-9.1-31.7c-1.7-4.9-3.6-9.8-5.6-14.6
			c-1.8-4.7-3.9-9.2-6.4-13.6c-2-3.4-4.7-7.4-8.8-8.4c-4.7-1.2-9.2,2.3-12.7,5c-7.1,5.5-12.3,13-14.8,21.7
			c-2.7,9.3-3.1,20.4,1.2,29.3C273.5,192.1,275.6,190.8,274.9,189.4L274.9,189.4z"/>
	</g>
	<g>
		<path class="st2" d="M119.7,205c6.6,3.5,12.7,7.9,18.2,13.1c1.5,1.2,2.6,2.9,3.2,4.9c0.6,2.3-0.2,5.7-1.6,5.7"/>
		<path class="st1" d="M119.1,206.1c5.3,2.8,10.2,6.2,14.8,10.1c1.9,1.6,4.4,3.4,5.5,5.8c0.5,1.1,0.7,2.3,0.6,3.5
			c-0.1,0.5-0.2,1.9-0.9,2c-1.6,0.2-0.9,2.6,0.7,2.4c2.4-0.3,2.9-4.1,2.7-6c-0.3-3.2-2.3-5.4-4.5-7.4c-5.3-4.9-11.2-9.1-17.6-12.5
			C119,203.2,117.7,205.4,119.1,206.1L119.1,206.1z"/>
	</g>
</g>
</svg>
