<svg id="single_cloud" data-name="single cloud" xmlns="http://www.w3.org/2000/svg" width="550.21108" height="332.73529" viewBox="0 0 550.21108 332.73529">
  <g>
    <g>
      <path d="M68.35915,384.376c-6.90514,2.31642-14.19926,4.59028-20.8294.49288s-12.0255-17.05124-9.59231-28.60643c2.64909-12.58051,12.12978-15.515,19.70808-13.62822s15.53491,6.46071,22.62924,1.42563c11.88541-8.43546,14.30483-38.52388,25.77038-48.58588,11.8994-10.44274,26.03221,6.19508,39.23362,3.236,12.67638-2.84143,22.62013-23.349,35.38832-24.30009,4.48534-.33413,9.18321,1.78533,13.35415-1.12388,13.10783-9.14261,5.17215-50.53689,16.80243-64.52827,9.0381-10.87294,21.092,4.35435,32.01064,2.60845,12.295-1.966,19.68807-24.06217,25.32723-43.30227s13.98792-40.86038,26.33264-40.538c5.902.15413,11.28666,5.56966,16.36878,10.829,10.2237,10.58017,22.05219,28.39416,17.83061,47.83679,1.90551-18.24091,16.60373-25.10667,25.46249-14.95586s12.08963,30.62911,11.43757,49.13773c-.1934,5.4898-.56217,11.60853,1.39575,15.90835a9.07753,9.07753,0,0,0,6.31146,5.20983c6.83176,1.84567,14.01815-.64066,19.93643-6.89758,2.513-2.65683,5.42691-6.10538,8.11663-4.04686,1.42263,1.08878,2.349,3.49333,3.55958,5.19595,5.04984,7.10231,12.59436.1653,18.94242,2.40877,3.48058,1.23007,6.41516,5.19141,9.66941,7.67958,6.36029,4.863,13.60544,3.91053,20.53008,3.11s14.254-1.21335,20.37266,4.52277,10.21861,19.86638,6.81538,30.46121l87.80078,68.76293c8.65093,6.77515,19.02134,20.51658,15.24691,35.74322-1.937,7.8143-6.96924,11.56969-11.63079,13.997a61.62526,61.62526,0,0,1-34.66731,7.12815c-10.36318-1.004-20.79766-4.77149-31.03309-1.75765-7.38777,2.17534-14.27361,7.7817-21.29358,12.36368-15.57342,10.16486-32.02946,15.38876-48.384,20.5647-7.66769,2.4267-16.02528,4.68123-22.88605-1.78913-6.7393-6.35581-10.96642-20.30112-18.42064-23.34348-2.7919-1.13949-5.70733-.555-8.55414.03517l-41.099,8.52024c-14.15064,2.93356-28.77373,6.13878-41.02156,18.89643-6.747,7.02782-13.75491,17.25281-21.40863,14.20026-7.08407-2.82534-10.97719-15.64682-15.44612-25.6818-12.0078-26.96359-34.25364-38.29408-52.64217-26.81229-11.12507,6.94648-21.7324,21.49055-33.35746,17.83735-9.46267-2.97366-16.57133-17.48787-25.89353-21.6038-8.67946-3.83214-17.65694,1.89978-26.39826,5.27294-15.78642,6.09176-32.52964,4.37586-47.8029-4.899L70.17758,387.75612" transform="translate(-36.11902 -126.29905)" style="fill: #00aeef"/>
      <path d="M68.02953,383.18035c-5.53589,1.84805-11.79095,3.99414-17.54421,1.78506-4.96169-1.90514-8.012-6.77523-9.81015-11.54668-3.29186-8.73507-3.59026-22.41606,5.40005-28.03146,8.12293-5.07362,16.51389,1.169,24.82612,2.07444,8.49458.92529,13.92582-4.87882,17.51945-11.81629,3.76608-7.27037,6.05346-15.21582,8.977-22.83653,2.62308-6.83746,6.16923-16.43892,13.84832-18.98277,8.08077-2.67693,16.7862,3.50669,24.3501,5.54293,7.823,2.106,14.20161-.12343,20.29212-5.176,6.43586-5.339,11.62063-12.62518,19.05172-16.68046,4.351-2.37443,8.20619-1.58967,12.94407-1.44431a11.14224,11.14224,0,0,0,9.36686-4.1465c3.83551-4.72206,4.92789-11.35733,5.73671-17.2008,1.06173-7.67058,1.40408-15.41689,2.2418-23.11156.7466-6.85771,1.623-14.59635,5.43771-20.53818,5.52011-8.59809,14.04576-3.57059,21.31739-.56327,6.81281,2.81757,13.29338,3.16339,18.98607-2.07585,6.34507-5.83966,9.8324-14.66352,12.75267-22.57209,3.70662-10.03815,6.21088-20.461,9.85935-30.51688,3.01766-8.31729,6.81131-18.651,14.1675-24.18232,9.35663-7.03555,18.83587,4.12337,24.69171,10.7237,6.78456,7.64713,12.44218,16.75412,14.7888,26.79163A39.96006,39.96006,0,0,1,327.498,185.862l2.43552.32961c.81383-6.99823,4.03064-15.40441,11.34256-17.85626,6.91195-2.31773,12.17957,3.00053,15.3168,8.562,4.53705,8.04292,6.36936,17.617,7.26021,26.70889a125.70627,125.70627,0,0,1,.55973,14.51924c-.08463,4.69568-.54228,9.43282.17015,14.10239.564,3.69645,2.09535,7.31065,5.45379,9.26063a16.434,16.434,0,0,0,10.3188,1.64343,22.34586,22.34586,0,0,0,10.70017-4.85339,61.18872,61.18872,0,0,0,4.85447-4.69609c.80248-.7957,2.05661-2.28824,3.24507-2.35909,1.95645-.11663,2.82426,2.05069,3.61262,3.40455,1.77405,3.04659,4.085,5.4056,7.78292,5.62581,3.71457.22121,7.25608-1.58679,10.96023-1.30808,4.732.35605,7.77079,5.19,11.263,7.85961a20.63763,20.63763,0,0,0,12.10993,4.01126c10.19154.31683,21.76895-4.39684,29.712,4.61094,6.338,7.18751,8.16933,19.18644,5.4518,28.16845a1.20968,1.20968,0,0,0,.31887,1.20637l72.457,56.74611c9.8458,7.71093,21.21806,14.75071,27.24277,26.10554,5.74021,10.81862,5.4428,25.4746-5.8667,32.4796-11.74312,7.27357-26.3444,9.73612-39.89161,7.72153-6.75242-1.00415-13.51187-2.71069-20.38715-2.41-6.61578.28936-12.42849,2.822-17.96468,6.30647-6.01873,3.78824-11.66679,8.08078-17.89216,11.549a147.36087,147.36087,0,0,1-19.33157,8.87217c-6.27269,2.38833-12.658,4.46377-19.05327,6.4953-5.57754,1.77177-11.73689,4.18956-17.67462,2.95364-10.80037-2.248-13.94911-16.04432-20.5025-23.35669-3.41652-3.8122-7.43977-5.0677-12.50431-4.2042-7.34327,1.252-14.63425,3.01246-21.92853,4.52463-12.898,2.67389-26.30115,4.60208-38.8046,8.85022a61.73829,61.73829,0,0,0-15.83316,7.85491c-5.01261,3.54083-9.01617,7.983-13.12252,12.49245-3.24232,3.56061-8.2805,9.81007-13.81738,8.65712-4.95853-1.03252-7.7799-6.91209-9.758-11.02646-5.08415-10.57473-8.53292-21.49655-16.10942-30.71316-5.89226-7.16779-13.85176-13.26862-23.12741-15.07715-9.06466-1.76738-17.57,1.05384-24.833,6.489-4.55539,3.409-8.68873,7.35123-13.294,10.69406-4.25269,3.08689-9.47232,6.15166-14.924,4.77907-4.95393-1.24726-8.75291-5.51392-12.08986-9.12131-3.40469-3.68062-6.67081-7.62368-10.77605-10.56021-11.05125-7.90508-22.54944.54864-33.44415,4.11935a52.11307,52.11307,0,0,1-39.79817-3.31053c-6.68947-3.37259-11.34637-10.31666-16.28318-15.83337-1.06646-1.19173-2.81539.56687-1.7535,1.7535l7.87749,8.8028c1.19236,1.33242,2.355,2.69992,3.58067,4.00127a15.8814,15.8814,0,0,0,4.44925,2.96482,57.70533,57.70533,0,0,0,19.15362,6.20742,52.6337,52.6337,0,0,0,18.0095-.725c6.9004-1.4824,12.97517-4.81922,19.56632-7.17285,6.79105-2.425,13.07974-2.31343,18.779,2.41919,4.13432,3.43311,7.45813,7.73211,11.22092,11.54415,3.19479,3.23661,6.92475,6.52134,11.51628,7.45347,4.71279.95674,9.33874-.79219,13.30589-3.24576,9.22385-5.70469,16.27321-15.31587,27.02142-18.36117,9.60054-2.72013,19.44557.64793,26.97944,6.78583,9.70021,7.90284,15.01449,18.93967,19.71179,30.24229,2.912,7.00681,7.61287,20.76229,17.52435,19.3894,5.12513-.70992,9.17875-5.177,12.4898-8.77173,4.59211-4.98552,8.93958-9.971,14.65909-13.7321,10.417-6.85009,22.66142-9.25529,34.66793-11.74436l23.18406-4.80629,10.53821-2.18467c3.8046-.78874,8.57426-2.53377,12.31731-.80993,4.54435,2.09288,7.25107,7.60883,9.68525,11.68433,2.63,4.40334,5.24445,9.22346,9.3726,12.42144,9.50616,7.36417,22.83309.97554,32.69971-2.28267,13.30828-4.39474,26.42944-9.56368,38.24838-17.19947,5.78276-3.736,11.22771-8.14933,17.51562-11.03953,7.46291-3.43027,15.37093-2.7347,23.242-1.40753,6.78243,1.1436,13.469,2.30407,20.37906,1.89929a63.00025,63.00025,0,0,0,19.57554-4.39625c4.93364-1.96345,10.108-4.30207,13.80279-8.24227a23.55564,23.55564,0,0,0,5.92752-15.19888c.50445-11.18737-5.77-21.77788-13.80171-29.12806-5.32845-4.87629-11.38607-9.08581-17.07041-13.53762l-17.90113-14.01962L500.0213,297.06837l-17.90113-14.01963.31887,1.20637c2.52374-8.34149,1.20075-17.8607-2.7328-25.56624-4.07212-7.977-11.58757-11.72441-20.40674-11.42293-4.9636.16967-9.86959,1.29239-14.85144,1.05762-6.1718-.29085-10.14481-3.35463-14.48109-7.38739-2.951-2.74448-5.99314-4.7659-10.17221-4.44333-3.9624.30585-8.96447,2.83441-12.47928.01429-2.747-2.20408-3.69154-8.27639-8.18146-7.77823-4.33312.48077-7.32812,6.0438-10.63815,8.40107-4.18949,2.9836-9.39428,4.53532-14.48519,3.25972-5.95495-1.4921-7.16379-7.104-7.31928-12.53867-.149-5.20705.31872-10.41231.17529-15.62464a118.6067,118.6067,0,0,0-1.3657-15.16317c-1.35684-8.62743-3.73015-17.79005-9.0277-24.90861-4.063-5.4596-10.48554-8.61525-17.10891-5.72458-7.67739,3.35069-11.00736,11.99345-11.91073,19.7616-.16089,1.38353,2.15714,1.69175,2.43553.32962,4.35743-21.3203-9.07329-42.89672-25.28735-55.803-3.41858-2.72116-7.51907-4.95073-12.0249-4.30763a15.63594,15.63594,0,0,0-8.7182,4.89643c-6.69032,6.81834-10.32844,16.6125-13.40832,25.46153-3.64823,10.482-6.23275,21.29765-10.341,31.62581-2.99428,7.52765-7.59432,19.03732-16.30675,21.48652-8.196,2.304-15.76206-5.3295-23.67585-6.21572-7.46856-.83635-11.96925,5.37139-14.20361,11.67949-5.29591,14.95152-2.82952,31.47184-6.84331,46.70187a21.42158,21.42158,0,0,1-3.84828,8.44528c-3.828,4.54735-9.05922,2.42562-14.14286,2.66021-8.007.36949-14.21341,7.06479-19.53444,12.32436-6.19486,6.12331-13.03883,13.65786-22.60959,12.10046-8.44835-1.37475-16.09014-7.39941-24.88261-6.79154-7.97776.55155-12.77031,7.37575-15.93591,13.98272-3.76471,7.85738-6.09432,16.29984-9.41811,24.33768a44.36017,44.36017,0,0,1-5.73574,10.592,13.2303,13.2303,0,0,1-13.94274,4.95549c-8.22011-1.7321-16.15053-6.42406-24.206-1.40721-7.80672,4.862-9.59863,15.40857-8.336,23.84642,1.33158,8.89843,6.2777,19.23168,16.01818,20.99029,5.505.99389,11.01628-.78634,16.183-2.51115,1.50623-.50282.86054-2.89858-.65924-2.39123Z" transform="translate(-36.11902 -126.29905)" style="fill: #a7a9ac"/>
    </g>
    <g>
      <path d="M216.70619,322.26207c-1.79391-9.05269.462-19.49071,4.46742-26.01708a24.78951,24.78951,0,0,1,14.84487-11.23967c11.31271-3.239,23.2012.02384,33.40639,9.16859a8.47747,8.47747,0,0,1,3.09953,5.23117c.3538,2.40284-.37054,4.842-1.04084,7.02809a234.81333,234.81333,0,0,0-8.17393,38.10035" transform="translate(-36.11902 -126.29905)" style="fill: #00aeef"/>
      <path d="M217.90181,321.93245A36.84074,36.84074,0,0,1,221.556,298.062a24.92336,24.92336,0,0,1,18.2009-12.63838c8.086-1.37873,16.27184.89792,23.09425,5.27261a44.20137,44.20137,0,0,1,5.52655,4.20307,8.07624,8.07624,0,0,1,2.83536,4.22951c.52289,2.34281-.24793,4.7469-.92515,6.9747q-.99638,3.27773-1.90228,6.58133a242.49978,242.49978,0,0,0-6.31594,31.84864c-.20861,1.57715,2.27323,1.56184,2.47982,0a237.78506,237.78506,0,0,1,6.107-30.745c.67243-2.49271,1.40355-4.96678,2.14865-7.43849a16.74968,16.74968,0,0,0,.95909-6.94492c-.55769-4.305-4.25225-7.00852-7.52685-9.39014-7.10571-5.168-15.87434-8.20732-24.71576-7.31076-8.2777.8394-15.7919,4.69751-20.57389,11.61917-5.49867,7.959-7.2347,18.86643-5.43723,28.26834.29934,1.56574,2.68986.90277,2.39123-.65924Z" transform="translate(-36.11902 -126.29905)" style="fill: #a7a9ac"/>
    </g>
    <g>
      <path d="M309.99343,316.30126c-4.20265-8.59777-3.563-22.21482.04705-31.60262a41.08425,41.08425,0,0,1,15.53825-19.42739c3.04529-2.12808,6.31948-3.94691,9.55687-3.03868,4.66066,1.30751,8.19406,7.88962,11.12523,14.37063a286.17191,286.17191,0,0,1,17.653,53.0243c6.36949,3.74975,13.74945,1.737,19.16675-5.2274,4.1233-5.30084,7.15227-13.227,11.76624-17.09251,9.06424-7.594,21.2583,8.21051,19.76433,25.61616,17.26652-17.18438,39.03847-2.56277,56.01076,15.49876,2.66226,2.83312,5.51754,6.269,6.24,11.57708s-2.45861,11.84047-5.19748,9.24113" transform="translate(-36.11902 -126.29905)" style="fill: #00aeef"/>
      <path d="M311.06405,315.67545c-3.05967-6.38709-3.24634-14.13976-2.26389-21.03469a40.7765,40.7765,0,0,1,8.63077-20.29847,42.56592,42.56592,0,0,1,7.29841-6.93283c2.84762-2.13459,6.87238-5.29272,10.64174-3.79517,3.11574,1.23787,5.16683,4.65034,6.73686,7.42079a109.40183,109.40183,0,0,1,5.26006,11.15567c3.32123,7.79971,6.23228,15.776,8.80192,23.85348q2.00426,6.30024,3.72915,12.68483.86121,3.18211,1.65548,6.38182.37134,1.49534.72835,2.99418c.23377.98157.26375,2.0937,1.16216,2.683,5.787,3.79554,13.27264,1.61165,17.99584-2.75453,5.44043-5.02922,7.61947-12.43123,12.39449-17.96336,1.58358-1.83466,3.5516-3.50649,6.10322-3.47626a9.19246,9.19246,0,0,1,6.01349,2.93418c4.67,4.505,6.953,11.436,7.44012,17.77047a35.97856,35.97856,0,0,1-.021,5.62524,1.25251,1.25251,0,0,0,2.11666.87675c4.07632-4.00671,9.16286-6.882,14.95382-7.24825,5.37391-.33984,10.6645,1.26813,15.42972,3.64968a71.44879,71.44879,0,0,1,15.13838,10.57951c2.50308,2.20993,4.9046,4.53381,7.22557,6.93381a35.24281,35.24281,0,0,1,5.255,6.34635,14.46315,14.46315,0,0,1,2.11472,9.29564c-.1159.79767-1.5054,6.36409-3.06385,5.00673-1.19858-1.04393-2.95965.703-1.7535,1.75349,1.93551,1.68577,4.06881.7702,5.39292-1.15805a13.46118,13.46118,0,0,0,1.94285-8.778c-.78175-6.89333-5.59221-11.74909-10.28744-16.39906a91.67266,91.67266,0,0,0-17.13138-13.75146c-5.41626-3.24331-11.51456-5.76-17.89607-5.98922-7.32506-.26314-13.92239,2.94147-19.07421,8.00531l2.11666.87675a35.7542,35.7542,0,0,0-3.22752-18.07246c-1.95474-4.12888-5.042-8.35005-9.43058-10.0791-4.43215-1.74622-8.46544.37675-11.33578,3.80929-3.917,4.6842-6.112,10.52686-9.92134,15.28039-4.28281,5.34428-11.02606,8.3414-17.3962,4.695l.56981.741a306.05883,306.05883,0,0,0-9.14529-31.69287q-2.57321-7.35622-5.56605-14.55681a116.53843,116.53843,0,0,0-6.35686-13.62837c-1.96873-3.40344-4.70739-7.43532-8.77846-8.43263-4.71332-1.15465-9.2088,2.262-12.70361,4.98348a42.27928,42.27928,0,0,0-14.79909,21.6521c-2.6617,9.26986-3.08641,20.43422,1.1627,29.30428.68918,1.43867,2.82808.18216,2.14125-1.25161Z" transform="translate(-36.11902 -126.29905)" style="fill: #a7a9ac"/>
    </g>
    <g>
      <path d="M155.86109,331.32354a84.339,84.339,0,0,1,18.19373,13.06592,9.47443,9.47443,0,0,1,3.15808,4.85792c.56157,2.30352-.18159,5.65542-1.61107,5.71114" transform="translate(-36.11902 -126.29905)" style="fill: #00aeef"/>
      <path d="M155.23528,332.39417a81.43389,81.43389,0,0,1,14.79549,10.07138c1.93668,1.64859,4.39706,3.40359,5.5175,5.761a6.49988,6.49988,0,0,1,.57428,3.51289c-.05424.5031-.20151,1.93518-.85034,2.02345-1.57408.21416-.90386,2.6039.65924,2.39124,2.44509-.33266,2.85149-4.12184,2.672-6.00228-.30118-3.15534-2.25063-5.35613-4.49465-7.3949a85.86935,85.86935,0,0,0-17.62191-12.504c-1.41078-.74342-2.66554,1.39618-1.25161,2.14125Z" transform="translate(-36.11902 -126.29905)" style="fill: #a7a9ac"/>
    </g>
  </g>
</svg>
