<svg id="Layer_1" data-name="Layer 1" xmlns="http://www.w3.org/2000/svg" width="221.80025" height="309.27887" viewBox="0 0 221.80025 309.27887">
  <g>
    <polygon points="46.234 126.869 38.331 29.072 1.288 98.076 46.234 126.869" style="fill: #ec008c;stroke: #231f20;stroke-miterlimit: 10"/>
    <polygon points="188.234 121.869 115.613 138.878 108.7 305.244 188.234 121.869" style="fill: #ed1c24;stroke: #231f20;stroke-miterlimit: 10"/>
    <polygon points="188.234 121.869 107.926 307.636 220.083 93.47 188.234 121.869" style="fill: #ed1c24;stroke: #231f20;stroke-miterlimit: 10"/>
    <polygon points="45.835 126.643 114.431 140.061 187.757 121.547 112.657 32.985 45.835 126.643" style="fill: #ec008c;stroke: #231f20;stroke-miterlimit: 10"/>
    <polygon points="177.113 22.341 188.234 121.869 220.083 93.739 177.113 22.341" style="fill: #ed1c24;stroke: #231f20;stroke-miterlimit: 10"/>
    <polygon points="112.657 0.505 152.868 5.827 176.521 21.567 111.671 37.759 38.739 29.298 57.662 8.784 112.657 0.505" style="fill: #fff200;stroke: #231f20;stroke-miterlimit: 10"/>
    <polygon points="111.671 36.577 115.431 140.061 188.234 121.869 111.671 36.577" style="fill: #ed1c24;stroke: #231f20;stroke-miterlimit: 10"/>
    <polygon points="1.288 98.076 109.926 307.636 46.835 126.643 1.288 98.076" style="fill: #ec008c;stroke: #231f20;stroke-miterlimit: 10"/>
    <polygon points="112.065 36.971 176.521 21.567 188.234 121.869 112.065 36.971" style="fill: #fff200;stroke: #231f20;stroke-miterlimit: 10"/>
    <polygon points="37.739 29.298 111.671 37.365 45.835 126.643 37.739 29.298" style="fill: #ed1c24;stroke: #231f20;stroke-miterlimit: 10"/>
    <polygon points="115.613 140.33 46.018 126.643 108.926 306.636 115.613 140.33" style="fill: #ec008c;stroke: #231f20;stroke-miterlimit: 10"/>
  </g>
</svg>
