<svg id="Layer_1" data-name="Layer 1" xmlns="http://www.w3.org/2000/svg" width="1382.14148" height="2466.36944" viewBox="0 0 1382.14148 2466.36944">
  <path d="M1522.69489,2772.58755c-46.24533-23.59975-201.38721-159.32459-170.30555-384.1098,14.42883-104.35052,292.12774-637.95467,436.408-777.082,99.34491-95.79687,74.50868-418.66781,17.74016-571.23321,88.70081,35.48033,151.28933,157.14894,195.14178,276.74653,156.11343,425.76388-212.52349,838.95657-223.526,1071.56873-10.64409,225.034,85.15278,227.69927,202.23785,344.09618C1896.60875,2768.80572,1575.91538,2799.74683,1522.69489,2772.58755Z" transform="translate(-775.86695 -335.96399)" style="fill: #ed1c24"/>
  <path d="M779.0067,2073.47107c7.75591-75.89116,57.29386-354.79366,213.86574-529.00457,40.07647-44.59138,338.69088-195.34636,466.15466-345.912,101.12186-119.44943,135.09793-318.46366,147.69573-520.2539,58.67409,165.268,28.60119,417.48536-28.70579,590.66364s-124.689,342.21474-151.43971,533.53083c-10.78566,77.1372-39.94026,369.27943,80.48575,416.18313,98.31,38.28993,297.00577-112.24728,379.68156-289.19637,60.47683-129.43714,128.55258-268.28447,225.46821-289.25747-68.62194,96.82382-146.228,215.11473-157.20809,357.70855-15.12327,196.4,19.9958,267.29608,30.71786,345.8923,31.95307,234.22652.44091,424.448-140.69584,433.65617-174.92207,11.4124-836.50226,22.32206-908.09479-5.19193S758.06752,2278.36,779.0067,2073.47107Z" transform="translate(-775.86695 -335.96399)" style="fill: #ed1c24;stroke: #f68c25;stroke-miterlimit: 10;stroke-width: 0.955760141594112px"/>
  <path d="M1994.5832,2738.36637c-53.22049,77.59794-1035.611,60.97216-1053.76561,50.97607S775.24275,2612.91636,806.769,2387.20222c20.054-143.57818,201.48029-248.15876,268.87383-424.81526,80.42206-210.80773-100.82843-533.45688-144.24811-638.21831-82.826-199.83944-114.95086-364.16122-100.56612-560.75268,10.64409-145.46933,60.31655-452.92316,308.67881-425.76388C997.58611,367.398,983.394,855.66481,1206.92,1178.53576c126.14735,182.21284,379.17464,320.36356,552.31036,423.02078,192.57223,114.1817,391.46624,450.06806,398.56231,706.14126S1994.5832,2738.36637,1994.5832,2738.36637Z" transform="translate(-775.86695 -335.96399)" style="fill: #ec008c"/>
  <path d="M2391.56847,2302.49611" transform="translate(-775.86695 -335.96399)" style="fill: #fff"/>
  <path d="M1192.72789,2802.33343c-61.55307-35.1373-93.41059-126.9487-78.85669-287.422,14.81283-163.32838,201.8192-364.91049,258.62366-374.7471-16.65907,171.88354,348.5019,241.348,245.99691,0-52.09743-122.66339-98.07123-252.57836-18.92284-362.12372-25.782,96.49054,72.86884,233.793,152.20872,303.74823,72.98669,64.35357,184.03178,203.72781,166.144,347.07581-19.92976,159.712-120.0412,231.06634-190.62358,352.776-139.57454-38.31524-250.72762-93.11753-380.56164-55.83578C1338.821,2728.07779,1181.64176,2788.21007,1192.72789,2802.33343Z" transform="translate(-775.86695 -335.96399)" style="fill: none"/>
  <path d="M994.03807,2797.8764c-61.55306-35.1373-93.41058-128.9487-78.85668-289.422,14.81283-163.32838,201.8192-364.9105,258.62366-374.74711-16.65907,171.88355,348.5019,241.348,245.99691,0-52.09743-122.66339-98.07123-252.57836-18.92284-362.12372-25.782,96.49054,72.86884,233.793,152.20872,303.74824,72.98669,64.35357,184.03178,203.7278,166.144,347.0758-19.92976,159.712-120.0412,246.58594-190.62358,368.29557C1325.18776,2806.22279,982.952,2783.753,994.03807,2797.8764Z" transform="translate(-775.86695 -335.96399)" style="fill: #fff200"/>
</svg>
