<svg id="Layer_1" data-name="Layer 1" xmlns="http://www.w3.org/2000/svg" width="640.89981" height="834.05141" viewBox="0 0 640.89981 834.05141">
  <g>
    <path d="M230.51818,250.49924c4.15525,2.33733,7.09606-5.91339,2.36535-10.6441s-8.41968-18.85747-9.46142-21.28819c-1.774-4.13937-6.50472-1.18268-10.05276,4.13937-2.97031,4.45546-10.05276,8.87008-10.05276,8.87008s-8.87008,2.36535-13.00945,8.27874c-3.12644,4.46635-26.0189,20.10552-26.0189,20.10552s21.87953,5.322,27.79292,1.774,19.13731-23.93134,22.47087-23.65355C221.6481,238.67246,221.05676,245.17719,230.51818,250.49924Z" transform="translate(-99.72606 -95.40297)" style="fill: #c791b3"/>
    <path d="M189.71579,154.70235s9.46142-4.13937,10.05276-11.82677,1.31084-16.23771-4.73071-18.92284c-5.322-2.36535-13.00945-1.18268-17.74016,1.18268s-3.548,12.41811-4.13937,18.3315-1.774,11.23543-6.50473,5.91339-6.50472-2.36536-8.27874-7.68741-7.09606-10.6441-14.19213-17.14882-13.00945-11.82678-14.78347-18.3315-1.18268-11.82678-7.09606-10.6441-5.32205,7.6874-5.32205,7.6874,5.91339,5.322,7.6874,8.87009,5.91339,18.92283,10.6441,22.47087,21.87953,21.28819,21.28819,24.83622-2.36535,11.82678-1.18267,18.3315,5.91338,37.84568,5.91338,44.94175-17.14882,33.115-17.14882,41.39371,6.50473,15.3748,6.50473,15.3748,4.13937,4.13938,15.3748,2.9567,9.46142-2.36536,21.2882-7.09607,18.92284-13.60079,22.47087-8.87008,10.6441,11.23544,10.6441,11.23544,5.91338.59134,3.548-7.09607-1.18268-8.87008-4.73071-14.19213-.59134-11.23543-4.13937-14.19212c-7.11059-5.9255-37.84568,10.64412-37.84568,10.64412,1.16333,1.795,19.74576-8.95157,17.14883-23.06223-1.51367-8.22467-8.27875-11.82678-6.50473-21.87954s.59133-29.56694,11.82677-33.115,32.52363-7.09606,37.84568-7.09606,34.29764-10.05276,34.29764-10.05276l7.68741-2.36536,1.30558-4.439a3.12814,3.12814,0,0,0-3.93407-3.8684l-3.87624,1.21133-7.6874,2.95669s-23.65355-.59134-31.34095,4.13937-37.25434,4.13937-39.6197,4.13937S189.71579,154.70235,189.71579,154.70235Z" transform="translate(-99.72606 -95.40297)" style="fill: #e4d5e9"/>
    <path d="M190.30714,131.04882c5.63791-1.87931,14.19213,8.27874,12.41812-1.774s3.548-16.55748-13.00946-18.3315-16.55748-5.91339-28.97559-3.548-16.55749-4.13937-8.87008,3.548,2.36535,11.82677,8.87008,15.96614,6.50472,10.6441,10.64409,8.87009S188.53313,131.64015,190.30714,131.04882Z" transform="translate(-99.72606 -95.40297)" style="fill: #c791b3"/>
  </g>
  <g>
    <path d="M150.015,616.99845c-2.36535,0-6.50473,2.36536-8.27874-4.13937s-4.73071-10.05275-4.73071-13.60079-2.36536-9.46142-2.36536-9.46142,3.548-.59134,7.09607-4.73071S153.563,569.69136,158.885,565.552s23.06221-29.56694,28.9756-33.70631,24.83623-34.29765,27.79292-33.70631,3.548,10.6441-.59134,23.06221-8.27874,14.78347-13.00945,21.2882-8.27874,14.78346-11.23544,17.74016-8.27874,4.73071-14.19213,8.27874-22.47087,12.41811-24.24488,18.92284-8.87009,8.27874-5.32205,13.60079S150.015,616.99845,150.015,616.99845Z" transform="translate(-99.72606 -95.40297)" style="fill: #c791b3"/>
    <path d="M157.70235,398.79447c-2.95669-.59134,5.32205,1.18267-7.6874-1.18268s-20.10119-4.42315-18.92284-1.18268c2.36536,6.50473-2.36535,10.6441,3.548,10.6441s9.46142-4.13937,13.60079-1.774,8.27875,7.6874,8.27875,9.46142,12.41811-.59134-4.13937,1.774-14.78347-1.18268-15.96615,7.09606-7.6874,14.19213-9.46142,15.37481-3.548,3.548,4.13937,1.774,15.96615-2.36535,17.74016-3.548,1.18268-.59134-7.09606,7.68741c-9.6535,9.6535-11.23544,31.93229-6.50473,28.38425s11.23544-15.3748,17.74016-12.41811,15.37481,6.50473,15.37481,6.50473l8.87008-3.548s13.60079,8.87008,13.60079,14.19212S194.36535,489.86063,192,494s-11.82677,5.91339-13.60079,12.41811,5.322,9.46142,1.774,14.19213-5.91339,16.55749-11.23544,18.92284-9.46142-.59134-19.51418,1.18268-19.51418,6.50473-24.24489,6.50473-10.64409-.59134-10.64409-.59134l-5.32205,5.322s-10.05276,4.13937-9.46142,6.50472.59134,10.05276,3.548,10.05276,8.27874-9.46142,15.37481-9.46142,40.80237-2.36536,46.12442-2.36536,21.28819-4.13937,23.65355-6.50472,24.24489-35.48032,26.61024-38.437,4.13937-14.19213,3.548-23.65355a136.42759,136.42759,0,0,0-3.548-23.06221c-1.18268-4.73071-14.19213-8.27874-15.96615-15.3748s.59134-20.69686-10.05275-28.9756S157.70235,398.79447,157.70235,398.79447Z" transform="translate(-99.72606 -95.40297)" style="fill: #e1a7cb"/>
  </g>
  <path d="M393.36526,262.49121c2.07992-3.11988,8.35545.69629,9.748-6.26659s0-36.207-14.62205-34.1181-24.37007,15.31833-19.49605,25.06636a78.65609,78.65609,0,0,0,9.748,15.31833s4.17772,6.96288,1.39257,9.748-16.71091,2.08886-20.19235,6.26659-6.96287,31.33295-11.83689,34.81439-25.06636,16.71091-31.333,15.31833-8.35545-6.26659-12.53318-4.17773-13.22947,3.48144-10.44432,5.57031,8.35546,9.748,11.8369,9.748,7.65916-2.08887,12.53318-2.78515c1.74475-.24926,5.89855-1.03385,10.67279-2.09827,8.56274-1.90908,19.12126-4.71829,21.35645-6.95348,3.48143-3.48144,13.22946-26.45893,13.22946-26.45893s4.874,9.05174,4.17773,17.40719-9.748,20.88864-9.748,20.88864-50.13272-9.05175-45.955,4.874,16.01462,24.37007,29.94037,24.37007,79.37681-.69628,82.85825-.69628,15.31833,0,21.58492-5.57031,11.14061-6.96287,11.14061-10.44431-33.95779-15.13968-43.86614-11.8369c-8.35545,2.78516-13.22946,8.35546-13.22946-2.78515s6.96287-33.42181,6.96287-33.42181,0,11.83689,7.65917,18.10348,29.24409,15.31833,32.02924,16.01462,15.31833,8.35545,20.88863,4.874,8.35546-6.26659,6.26659-9.05175-4.17772-12.53318-9.748-11.83689c-2.07273.25909-2.08886,9.748-2.08886,9.748s4.874,3.48144-9.748-3.48144-19.49606-6.96288-24.37007-17.40719,5.5703-25.06636-6.96288-32.02924-25.76265-1.39258-27.85151-5.5703S391.97268,264.58007,393.36526,262.49121Z" transform="translate(-99.72606 -95.40297)" style="fill: #c791b3"/>
  <g>
    <path d="M478.60471,490.62133c-13.5201-1.76349-18.22274-2.93915-26.45237-2.35132s-34.682-21.16189-39.97247-18.81057-7.054,8.81746-11.75661,9.99312A117.11131,117.11131,0,0,0,387.491,484.1552s-11.75661,8.22963,3.527,4.70264,34.09416,3.527,45.26294,6.46614,54.66823,17.63491,67.01267,19.3984,52.31691-7.64179,49.96559-12.93227-5.29048-23.51321-14.69576-17.63491-20.57407,7.054-33.50634,8.22963S478.60471,490.62133,478.60471,490.62133Z" transform="translate(-99.72606 -95.40297)" style="fill: #c791b3"/>
    <path d="M652.01469,454.17585c-5.8783-1.17566-14.10793-3.527-18.81057,2.93915s-9.40529,11.75661-9.40529,11.75661-5.29047-1.17566-17.04708-5.87831-24.68888-11.16877-30.56719-11.16877-14.10793-2.93916-28.21586-2.93916S526.219,447.70971,522.692,451.2367s-7.64179,4.11481-5.29047,6.46613,9.99312,1.76349,11.75661,2.93915,2.35132,7.054,4.70264,4.70265,4.11482-7.6418,7.6418-8.81746,12.34444,4.11481,21.16189,4.70264,7.054,3.527,14.10793,6.46614,9.40529,2.35132,9.99312,5.8783-1.76349,8.81746-6.46613,9.99312-8.22963.58783-17.04709,1.17566-15.28359-4.70264-24.101-1.76349S527.39464,494.73615,522.692,495.324s-21.74972,3.527-21.74972,3.527-25.86454-3.527-31.155-1.76349-11.75661,4.11481-19.39841,4.11481-15.28359-3.527-20.57406-3.527-9.99312-1.76349-14.69576,2.35132-15.2836,11.75661-15.2836,17.04708,0,9.99312,2.93916,8.22963,1.76349-.58783,10.58094-2.35132,9.99312-9.99312,17.04709-9.40529,17.04708,4.70265,30.56718,4.11481a139.38811,139.38811,0,0,1,27.628,1.7635c4.70264.58783-5.29047,5.8783,22.33756,5.8783s25.86454-7.6418,49.96558-8.22963,34.682-1.17566,45.26295-3.527,28.21586-12.34444,29.97935-12.93227,21.74972.58783,29.39152,1.76349,4.70264,3.527,14.69576,1.76349,12.34444-2.93915,17.04708-2.93915,31.155-2.35132,31.155-2.35132,10.58094-2.93915-4.70265-4.70264-16.45925,1.76349-32.9185.58783a225.35068,225.35068,0,0,1-40.5603-7.054c-8.81746-2.35132-8.81746-2.35132-7.054-5.8783s-.58783-3.527,8.81746-6.46614,11.75661-7.64179,9.99312-12.34444S652.01469,454.17585,652.01469,454.17585Z" transform="translate(-99.72606 -95.40297)" style="fill: #e4d5e9"/>
  </g>
  <path d="M689.76132,201.49448c6.99026,3.764,5.37713,10.75425,8.06569,22.58393s-4.3017,13.44282-4.3017,13.44282,16.13138,4.30171,20.9708,5.91484,4.3017,5.91484,6.45255,11.292,4.3017,26.34793,4.3017,34.41362,1.61314,8.6034,1.07543,11.82968a5.8224,5.8224,0,0,1-2.68857,4.3017s5.91484,1.61314,7.528,6.99027,5.91484,5.91484,8.60341,12.9051-1.61314,8.0657-3.764,12.3674-12.3674,6.99026-16.13139,10.21654,6.45256,17.74452,5.91484,20.43308-8.06569,0-12.36739-.53771-3.22628-7.528-3.22628-7.528-2.15085-9.14111-3.22627-10.75425-4.30171-10.21654-4.30171-11.82968-4.3017-2.15085-11.292-2.15085a150.48649,150.48649,0,0,0-15.59367,1.07542s3.764,8.06569,3.764,9.67883-2.68857,2.68857-5.91484,8.60341-5.91484,11.82968-5.91484,11.82968-6.45256,2.68856-11.292,2.15085-3.22628-6.45256-3.22628-8.06569,8.6034-11.292,7.528-13.98054-13.98053-3.764-13.98053-3.764l-4.3017,12.9051s-5.37713-2.15085-6.99027-4.83941-2.68856-9.67883-4.83942-11.292-2.68856-15.056-1.61313-22.04622,9.14111-6.99027,9.14111-6.99027,5.91484-12.36739,6.45256-16.13138,4.3017-19.89538,3.764-30.11192,4.3017-10.21654,8.6034-16.13138,12.90511-3.22628,12.90511-3.22628a181.896,181.896,0,0,1-11.82968-16.13138c-4.30171-6.99027,0-9.14112.53771-18.28223s14.51824-10.75426,19.89537-11.292C678.46935,199.34363,682.771,197.73049,689.76132,201.49448ZM661.80025,274.0857,652.12143,305.273l12.36739-4.3017,4.3017-22.04622Z" transform="translate(-99.72606 -95.40297)" style="fill: #e4d5e9"/>
  <path d="M309.58735,623.338c6.73594-.40416,14.78346,4.92782,15.17769,12.02389s.39423,12.221-1.18268,15.3748a23.61079,23.61079,0,0,0-1.97113,7.09607s-.78845,1.18268,2.75958,1.5769,9.85565-4.33648,11.03833-5.51916,3.94226-11.82677,6.30761-16.16326,13.40368-29.17271,15.37481-31.93229,8.673-18.52861,8.673-19.71129.78845-9.46142,1.18267-14.98058,3.15381,2.75958,3.15381,2.75958,7.49029-15.37481,8.27874-14.98058-.78845,8.673-.78845,8.673,6.1105-9.46142,6.70184-9.0672-3.94226,13.79791-3.94226,13.79791,5.71627-9.85565,6.70184-9.0672-5.12494,14.58636-5.12494,14.58636,6.30762-9.65854,6.70184-8.27874-5.91338,14.98058-7.49029,17.74016-3.94226.78845-5.91339,7.49029-7.49029,21.68242-9.06719,32.32651-9.46142,31.53807-11.03832,35.0861-10.6441,14.58636-10.6441,21.2882-6.30761,38.63413-3.15381,50.85513-2.36535,18.92284,0,27.20158,3.548,16.95171,2.75959,29.96116-3.548,45.336-3.15381,47.70132,1.5769,46.91288,1.5769,50.06668-5.51916,2.75958-3.94226,7.88452,6.70184,17.34593,10.6441,20.10552,3.94226,4.73071,3.94226,5.91338-3.548,3.548-8.27874,3.94226-11.03833-5.12493-11.03833-5.12493-12.61522-1.18268-13.7979-4.33649-1.18268-8.27874-.39423-10.24987,2.36536-7.09606,3.15381-10.24987-4.33648-26.41313-3.548-27.59581,1.774-8.08163,1.774-8.08163,2.56247-8.87008.19712-21.87953-7.648-36.97838-7.8845-38.63415c-.59136-4.13935-1.073-7.99456-.9856-7.68737,0,0-.78843-7.09608-4.13935,18.72571-3.35955,25.8883-17.34594,28.38426-16.16326,37.84568s1.97113,50.85513.78845,52.432a18.3798,18.3798,0,0,1-1.899,2.06421,4.062,4.062,0,0,0-1.17866,3.75747l.93145,4.502a4.6359,4.6359,0,0,1-2.9683,5.3366,5.726,5.726,0,0,0-3.5585,2.86833c-1.5769,3.548-6.30761,8.673-9.85564,8.673s-10.6441-.78846-10.6441-.78846-1.5769-.78845-.39423-5.51916,8.673-8.27874,10.24987-12.61522,1.18268-8.673.78846-13.40368-1.57691-44.15329-.78846-47.70132,5.51917-60.71078,8.27875-68.98952,1.34805-20.13181,4.33648-30.35539c3.74515-12.81234-2.90434-57.30795-3.548-59.331-1.37979-4.33648-16.16326-23.06221-18.13439-31.73517s-12.61523-52.03781-13.00945-54.00894,3.1538-5.51916-1.97113-12.61523-12.61523-27.20158-11.43255-28.38426,6.70184,7.88452,6.70184,7.88452-7.09607-14.98058-5.12494-14.98058,8.673,13.00945,8.673,13.00945-6.30761-15.37481-4.73071-15.37481,9.46142,15.37481,9.46142,15.37481-6.70184-14.58635-4.73071-14.58635,9.46142,20.10551,9.85565,18.92283,2.36535-11.03832,3.548-11.03832-.78845,14.98058-.78845,16.16326-4.33649,2.75958,0,12.221,16.16326,35.87455,18.92284,41.78794,9.85564,27.20158,11.03832,27.20158,7.29318-2.16824,7.29318-2.16824,4.70357-2.14772,3.94226-4.33649c-1.57691-4.53359-4.29-7.56237-6.1105-14.38924C293.43446,630.128,299.7317,623.92937,309.58735,623.338Z" transform="translate(-99.72606 -95.40297)" style="fill: #e1a7cb"/>
</svg>
