<svg id="Layer_1" data-name="Layer 1" xmlns="http://www.w3.org/2000/svg" width="348.82732" height="76.98327" viewBox="0 0 348.82732 76.98327">
  <g>
    <path d="M478.60471,490.62133c-13.5201-1.76349-18.22274-2.93915-26.45237-2.35132s-34.682-21.16189-39.97247-18.81057-7.054,8.81746-11.75661,9.99312A117.11131,117.11131,0,0,0,387.491,484.1552s-11.75661,8.22963,3.527,4.70264,34.09416,3.527,45.26294,6.46614,54.66823,17.63491,67.01267,19.3984,52.31691-7.64179,49.96559-12.93227-5.29048-23.51321-14.69576-17.63491-20.57407,7.054-33.50634,8.22963S478.60471,490.62133,478.60471,490.62133Z" transform="translate(-383.17268 -448.69727)" style="fill: #ec008c"/>
    <path d="M652.01469,454.17585c-5.8783-1.17566-14.10793-3.527-18.81057,2.93915s-9.40529,11.75661-9.40529,11.75661-5.29047-1.17566-17.04708-5.87831-24.68888-11.16877-30.56719-11.16877-14.10793-2.93916-28.21586-2.93916S526.219,447.70971,522.692,451.2367s-7.64179,4.11481-5.29047,6.46613,9.99312,1.76349,11.75661,2.93915,2.35132,7.054,4.70264,4.70265,4.11482-7.6418,7.6418-8.81746,12.34444,4.11481,21.16189,4.70264,7.054,3.527,14.10793,6.46614,9.40529,2.35132,9.99312,5.8783-1.76349,8.81746-6.46613,9.99312-8.22963.58783-17.04709,1.17566-15.28359-4.70264-24.101-1.76349S527.39464,494.73615,522.692,495.324s-21.74972,3.527-21.74972,3.527-25.86454-3.527-31.155-1.76349-11.75661,4.11481-19.39841,4.11481-15.28359-3.527-20.57406-3.527-9.99312-1.76349-14.69576,2.35132-15.2836,11.75661-15.2836,17.04708,0,9.99312,2.93916,8.22963,1.76349-.58783,10.58094-2.35132,9.99312-9.99312,17.04709-9.40529,17.04708,4.70265,30.56718,4.11481a139.38811,139.38811,0,0,1,27.628,1.7635c4.70264.58783-5.29047,5.8783,22.33756,5.8783s25.86454-7.6418,49.96558-8.22963,34.682-1.17566,45.26295-3.527,28.21586-12.34444,29.97935-12.93227,21.74972.58783,29.39152,1.76349,4.70264,3.527,14.69576,1.76349,12.34444-2.93915,17.04708-2.93915,31.155-2.35132,31.155-2.35132,10.58094-2.93915-4.70265-4.70264-16.45925,1.76349-32.9185.58783a225.35068,225.35068,0,0,1-40.5603-7.054c-8.81746-2.35132-8.81746-2.35132-7.054-5.8783s-.58783-3.527,8.81746-6.46614,11.75661-7.64179,9.99312-12.34444S652.01469,454.17585,652.01469,454.17585Z" transform="translate(-383.17268 -448.69727)" style="fill: #fff200"/>
  </g>
</svg>
