<svg id="Layer_1" data-name="Layer 1" xmlns="http://www.w3.org/2000/svg" width="1229.37506" height="390" viewBox="0 0 1229.37506 390">
  <path d="M1289.3415,2727.34959a202.39945,202.39945,0,0,1,66.15579-10.589l-31.435-5.15267,42.63943-3.81183-23.96971-4.34336,63.50421-4.63154c-23.24323-21.07571-62.25994-12.34571-94.05787-11.78032-37.41645.66532-71.10184-8.06265-108.51829-7.39735-30.2499.53788-62.39015.60067-88.14964-14.80631-6.8717-4.11-13.79791-11.706-10.5444-18.87722,2.03423-4.48376,7.21362-6.58723,11.76252-8.70826,29.90287-13.94291,26.09368-39.98035,22.7789-72.02663-38.97519-5.10926-51.75811-28.47294-88.70081-15.37481s-73.01359,61.87117-63.958,99.03c-19.18177,10.71059-40.04672-10.35733-52.56812-28.07077a544.99817,544.99817,0,0,0-73.42078-84.00552c-5.00927-4.66863-10.45479-9.42826-17.23713-10.873-11.80682-2.51509-22.90587,5.60549-32.40311,12.86553a460.3883,460.3883,0,0,1-190.12148,85.368l30.96474.10918-30.20645,9.475,26.86186-7.69857c-3.647-.39637-4.17782,5.85717-.93673,7.52834s7.178.19755,10.53955-1.23173c52.15357-22.17461,84.98952-25.72792,147.67143-31.64131,17.05761-1.60921,43.92705-4.12049,59.13387,3.548,17.50857,8.82925,28.54552,36.58957,40.211,52.03781,17.84982,23.63791,4.73071,18.92284,15.3748,50.85513-49.67245,26.01891-61.151,52.13161-109.54355,34.93451-22.47988-7.9886-51.575-29.2848-74.95413-24.29041-11.63923,2.48645-43.15231,16.27967-53.22049,22.47087-62.60637,38.4984-114.71971,53.22049-184.49768,50.85513-54.99787-1.86433-147.679-62.54314-202.1691-66.18149-5.29379-.35347-3.58918-17.70339-8.34748-15.42325-6.25172,2.99577-16.79059,26.67086-20.13548,32.60981-19.505,34.6317-50.45019,41.59361-90.983,44.63744,25.73909,6.8912,43.48494,6.58357,67.98563-3.7188,42.78215-17.9896,128.07418,38.26,174.56808,41.61453-24.83147,24.48373-64.63246,33.41452-98.01074,21.99224-28.55624,33.10251-67.89007,57.30674-110.91149,68.24984,38.74964,2.97945,78.37954-5.9442,113.30086-22.99019L464.817,2856.87268c20.83037-5.17481,41.71149-10.35951,63.00022-13.28859,28.411-3.909,57.22375-3.759,85.91791-3.95769,74.27275-.51425,124.813-4.50815,200.536-8.29891,45.94582-28.9484,131.40722,7.804,184.91825-3.54208,17.3773-3.68455,52.66458-8.10993,68.17473-16.56343,24.71283-13.46924,41.5171-51.578,66.22993-65.04726C1186.8549,2717.14593,1237.48,2707.75423,1289.3415,2727.34959Z" transform="translate(-176.86112 -2525.46376)" style="fill: #ec008c"/>
</svg>
