<svg id="Layer_1" data-name="Layer 1" xmlns="http://www.w3.org/2000/svg" width="112.1638" height="170.36136" viewBox="0 0 112.1638 170.36136">
  <path d="M689.76132,201.49448c6.99026,3.764,5.37713,10.75425,8.06569,22.58393s-4.3017,13.44282-4.3017,13.44282,16.13138,4.30171,20.9708,5.91484,4.3017,5.91484,6.45255,11.292,4.3017,26.34793,4.3017,34.41362,1.61314,8.6034,1.07543,11.82968a5.8224,5.8224,0,0,1-2.68857,4.3017s5.91484,1.61314,7.528,6.99027,5.91484,5.91484,8.60341,12.9051-1.61314,8.0657-3.764,12.3674-12.3674,6.99026-16.13139,10.21654,6.45256,17.74452,5.91484,20.43308-8.06569,0-12.36739-.53771-3.22628-7.528-3.22628-7.528-2.15085-9.14111-3.22627-10.75425-4.30171-10.21654-4.30171-11.82968-4.3017-2.15085-11.292-2.15085a150.48649,150.48649,0,0,0-15.59367,1.07542s3.764,8.06569,3.764,9.67883-2.68857,2.68857-5.91484,8.60341-5.91484,11.82968-5.91484,11.82968-6.45256,2.68856-11.292,2.15085-3.22628-6.45256-3.22628-8.06569,8.6034-11.292,7.528-13.98054-13.98053-3.764-13.98053-3.764l-4.3017,12.9051s-5.37713-2.15085-6.99027-4.83941-2.68856-9.67883-4.83942-11.292-2.68856-15.056-1.61313-22.04622,9.14111-6.99027,9.14111-6.99027,5.91484-12.36739,6.45256-16.13138,4.3017-19.89538,3.764-30.11192,4.3017-10.21654,8.6034-16.13138,12.90511-3.22628,12.90511-3.22628a181.896,181.896,0,0,1-11.82968-16.13138c-4.30171-6.99027,0-9.14112.53771-18.28223s14.51824-10.75426,19.89537-11.292C678.46935,199.34363,682.771,197.73049,689.76132,201.49448ZM661.80025,274.0857,652.12143,305.273l12.36739-4.3017,4.3017-22.04622Z" transform="translate(-628.46206 -199)" style="fill: #fff200"/>
</svg>
