<svg id="Layer_1" data-name="Layer 1" xmlns="http://www.w3.org/2000/svg" width="164.07152" height="187.24106" viewBox="0 0 164.07152 187.24106">
  <g>
    <path d="M230.51818,250.49924c4.15525,2.33733,7.09606-5.91339,2.36535-10.6441s-8.41968-18.85747-9.46142-21.28819c-1.774-4.13937-6.50472-1.18268-10.05276,4.13937-2.97031,4.45546-10.05276,8.87008-10.05276,8.87008s-8.87008,2.36535-13.00945,8.27874c-3.12644,4.46635-26.0189,20.10552-26.0189,20.10552s21.87953,5.322,27.79292,1.774,19.13731-23.93134,22.47087-23.65355C221.6481,238.67246,221.05676,245.17719,230.51818,250.49924Z" transform="translate(-116.9647 -95.40297)" style="fill: #ec008c"/>
    <path d="M189.71579,154.70235s9.46142-4.13937,10.05276-11.82677,1.31084-16.23771-4.73071-18.92284c-5.322-2.36535-13.00945-1.18268-17.74016,1.18268s-3.548,12.41811-4.13937,18.3315-1.774,11.23543-6.50473,5.91339-6.50472-2.36536-8.27874-7.68741-7.09606-10.6441-14.19213-17.14882-13.00945-11.82678-14.78347-18.3315-1.18268-11.82678-7.09606-10.6441-5.32205,7.6874-5.32205,7.6874,5.91339,5.322,7.6874,8.87009,5.91339,18.92283,10.6441,22.47087,21.87953,21.28819,21.28819,24.83622-2.36535,11.82678-1.18267,18.3315,5.91338,37.84568,5.91338,44.94175-17.14882,33.115-17.14882,41.39371,6.50473,15.3748,6.50473,15.3748,4.13937,4.13938,15.3748,2.9567,9.46142-2.36536,21.2882-7.09607,18.92284-13.60079,22.47087-8.87008,10.6441,11.23544,10.6441,11.23544,5.91338.59134,3.548-7.09607-1.18268-8.87008-4.73071-14.19213-.59134-11.23543-4.13937-14.19212c-7.11059-5.9255-37.84568,10.64412-37.84568,10.64412,1.16333,1.795,19.74576-8.95157,17.14883-23.06223-1.51367-8.22467-8.27875-11.82678-6.50473-21.87954s.59133-29.56694,11.82677-33.115,32.52363-7.09606,37.84568-7.09606,34.29764-10.05276,34.29764-10.05276l7.68741-2.36536,1.30558-4.439a3.12814,3.12814,0,0,0-3.93407-3.8684l-3.87624,1.21133-7.6874,2.95669s-23.65355-.59134-31.34095,4.13937-37.25434,4.13937-39.6197,4.13937S189.71579,154.70235,189.71579,154.70235Z" transform="translate(-116.9647 -95.40297)" style="fill: #fff200"/>
    <path d="M190.30714,131.04882c5.63791-1.87931,14.19213,8.27874,12.41812-1.774s3.548-16.55748-13.00946-18.3315-16.55748-5.91339-28.97559-3.548-16.55749-4.13937-8.87008,3.548,2.36535,11.82677,8.87008,15.96614,6.50472,10.6441,10.64409,8.87009S188.53313,131.64015,190.30714,131.04882Z" transform="translate(-116.9647 -95.40297)" style="fill: #ec008c"/>
  </g>
</svg>
