<svg id="Layer_1" data-name="Layer 1" xmlns="http://www.w3.org/2000/svg" width="904.74825" height="492.35746" viewBox="0 0 904.74825 492.35746">
  <path d="M1939.59459,2036.9057c31.911-20.82727,82.46763-12.86195,111.82553-39.57906,21.77609-19.81728,24.64216-48.22917,24.767-58.38636.16879-13.73415-25.42265-47.14-67.90212-50.64752-69.74985-5.75926-77.70312,58.25046-116.03826,43.5051-4.636-1.7832-66.95768-20.05535-71.39826-22.24579-7.55867-3.72853-9.54074-12.92584-13.63357-20.04965-8.20045-14.27342-23.163-39.03647-37.5951-47.69907-19.54036-11.72871-37.269-10.44-51.85486-27.52325-40.10073-46.96676-68.14194-97.03134-102.17651-148.18032-20.08228-30.1807-48.64935-60.69126-76.62184-84.4591-3.64161-3.09423-8.02747-6.23172-12.864-5.65663-4.59272.54609-7.96955,4.258-10.75149,7.79117-25.43787,32.30666-40.25064,71.20589-64.599,104.26968-55.08293,74.79977-155.19006,126.61725-247.53061,122.94735,14.41543,2.61456,25.58435,15.34018,39.99979,17.95474-18.16551,13.27323-56.322,21.04093-71.78162,37.14059,8.822.66783,52.65591-9.79544,61.47793-9.12762-8.42493,2.85582-50.29,19.2543-50.08888,27.7915,40.95171,1.3349,82.82432,1.3349,78.338-25.8063,104.24-30.67958,195.46834-74.65022,281.36726-136.92408-3.28254,41.9139,25.69656,66.848,46.13635,104.06894,9.77729,17.8045,38.69768,37.289,53.83621,47.14,12.68831,8.25655,34.19363,57.34222,29.06093,71.16358-75.23594,9.74708-201.934,36.41872-260.85572,93.11212C1569.85025,2010.33607,1813.46426,2119.22684,1939.59459,2036.9057Z" transform="translate(-1171.43969 -1575.91538)" style="fill: #ec008c"/>
</svg>
