<svg id="Layer_1" data-name="Layer 1" xmlns="http://www.w3.org/2000/svg" width="181.55487" height="147.02324" viewBox="0 0 181.55487 147.02324">
  <path d="M393.36526,262.49121c2.07992-3.11988,8.35545.69629,9.748-6.26659s0-36.207-14.62205-34.1181-24.37007,15.31833-19.49605,25.06636a78.65609,78.65609,0,0,0,9.748,15.31833s4.17772,6.96288,1.39257,9.748-16.71091,2.08886-20.19235,6.26659-6.96287,31.33295-11.83689,34.81439-25.06636,16.71091-31.333,15.31833-8.35545-6.26659-12.53318-4.17773-13.22947,3.48144-10.44432,5.57031,8.35546,9.748,11.8369,9.748,7.65916-2.08887,12.53318-2.78515c1.74475-.24926,5.89855-1.03385,10.67279-2.09827,8.56274-1.90908,19.12126-4.71829,21.35645-6.95348,3.48143-3.48144,13.22946-26.45893,13.22946-26.45893s4.874,9.05174,4.17773,17.40719-9.748,20.88864-9.748,20.88864-50.13272-9.05175-45.955,4.874,16.01462,24.37007,29.94037,24.37007,79.37681-.69628,82.85825-.69628,15.31833,0,21.58492-5.57031,11.14061-6.96287,11.14061-10.44431-33.95779-15.13968-43.86614-11.8369c-8.35545,2.78516-13.22946,8.35546-13.22946-2.78515s6.96287-33.42181,6.96287-33.42181,0,11.83689,7.65917,18.10348,29.24409,15.31833,32.02924,16.01462,15.31833,8.35545,20.88863,4.874,8.35546-6.26659,6.26659-9.05175-4.17772-12.53318-9.748-11.83689c-2.07273.25909-2.08886,9.748-2.08886,9.748s4.874,3.48144-9.748-3.48144-19.49606-6.96288-24.37007-17.40719,5.5703-25.06636-6.96288-32.02924-25.76265-1.39258-27.85151-5.5703S391.97268,264.58007,393.36526,262.49121Z" transform="translate(-293.2733 -222)" style="fill: #ed1c24"/>
</svg>
