<svg id="Layer_1" data-name="Layer 1" xmlns="http://www.w3.org/2000/svg" width="398.82012" height="607.08674" viewBox="0 0 398.82012 607.08674">
  <path d="M407.77727,2017.2483c-1.51535,5.022-14.55132-20.188-10.37955-37.57468s16.834-35.59631,34.14523-34.73336c18.987.94649,29.28568,23.03427,34.349,41.97186,2.77606,10.383,5.22641,21.37634,2.67146,31.81979s-11.73617,19.94016-22.10928,18.89606c9.33064,2.5054,15.24082,13.10005,15.11224,23.06324-.71368,55.30077-36.20055,70.89944-21.94383,105.28214,14.15343,34.13362,57.9675,96.04471,53.07537,136.53447-9.59059-.59353-15.82585-3.62213-20.13948-12.49538s-10.58269-28.84273-11.70574-38.705c-21.12494-6.25333-33.02468-54.8576-49.537-64.61007,9.43562,42.667,20.0507,143.84882,45.99866,187.7349,23.06483,39.00981-14.15343,96.30557,8.27833,137.72232,2.40314,4.437,2.62987,10.36789,6.772,13.1116,2.7646,1.83124,6.20414,2.08737,9.48182,2.29123l66.32226,4.12487c-4.40882,14.83952-22.62769,18.76062-37.60546,19.91125-27.39451,2.10451-62.34969-4.73173-89.812-4.05506-10.664-20.96568-1.76917-28.03833,1.17946-52.41949,4.12808-40.2289-1.29017-70.6003-8.25617-104.839-7.94733-39.06194-29.48632-84.115-45.99866-112.15331-15.33289,34.13362-37.41893,61.87212-47.79287,88.61491-3.37309,8.69542-6.79175,17.47887-12.00136,25.14514-7.44207,10.95148-31.69264,23.95823-41.63871,32.52688-27.499,23.69065-36.9337,47.40127-60.18417,77.14995,6.67478,2.79913,12.88207,7.16343,20.08277,6.965s23.075,7.25442,27.12742,13.40964c5.73252,8.70711-7.54731,9.81289-17.09374,13.49556s-27.287-12.11358-37.16109-14.71462c-21.27787-5.60508-51.89592-23.77163-49.537-30.47645,2.74117-7.79134,18.23651-3.21407,25.79629-6.17587,32.44306-51.68086,70.8215-92.471,107.48186-140.111,16.1332-20.965,20.86064-61.89634,35.3836-84.115-6.73989-2.77256-11.2048-19.50492-5.30754-33.52409,4.12809-16.45728,10.65046-9.67992,17.6918-19.50492,11.79452-16.45728-16.02132-20.324-15.59329-22.02736,6.26488-24.93229-7.30536-67.6118,10.28575-85.85926,11.00974-11.42053,23.8418-41.57463,35.38358-52.41948C373.57314,2034.31511,403.05946,2050.16286,407.77727,2017.2483Z" transform="translate(-149.34855 -1944.91074)" style="fill: #ec008c"/>
</svg>
