<svg id="Layer_1" data-name="Layer 1" xmlns="http://www.w3.org/2000/svg" width="373.52934" height="516.21119" viewBox="0 0 373.52934 516.21119">
  <path d="M502.98363,1475.96913a1066.81688,1066.81688,0,0,0,68.79608-125.73044,23.64682,23.64682,0,0,0-15.81566,6.53555,166.50025,166.50025,0,0,1,13.26852-34.0648c-21.41874,16.70741-35.939,39.74056-50.03083,62.292l-32.23255,51.58245c-7.7448,12.39418-17.65008,26.1633-32.86686,27.68886,5.466-27.48774,9.71506-49.09086-1.05006-75.16253-1.26251-3.05765-15.888-19.37565-34.10113-14.72549-20.05992,5.12168-23.63829,24.41331-19.394,48.27267,3.434,19.3041,20.169,23.02971,17.84391,47.05551-41.07637-35.65119-84.53017-86.23593-122.55-134.865a43.78046,43.78046,0,0,0,8.07644,23.28233c-7.34343-10.79508-21.08056-17.4621-34.70582-16.84371-1.99877,4.5621.64592,10.42419,5.52641,12.24956-.11428,1.47294-8.90449-8.8447-12.03362-4.09515s4.37915,11.45584,9.27418,8.28357a16.5945,16.5945,0,0,0-9.56125,8.94577c22.42768-3.17615,42.38807,12.62272,58.502,27.61154,14.2976,13.29927,28.45538,26.99772,38.9937,43.0974,13.91517,21.2586,21.34694,46.42384,39.13817,64.95918,5.45724,5.68549,11.94163,10.83015,15.12819,17.87515,2.59417,5.73532,2.72151,12.15209,2.74474,18.38328a904.18987,904.18987,0,0,1-26.03109,218.53044c-2.15708,8.798-4.458,17.60184-8.01807,25.98828-11.22347,26.43915-30.99927,39.69944-59.81214,48.53438l10.793-.15645-.88893,7.42713c19.05021-16.01446,43.789-10.4893,61.74352-27.58368,7.43615-7.07993,12.32454-16.1207,16.95575-25.06344,21.70265-41.90718,39.26159-92.49084,54.77644-136.75464,10.2957,21.4416,33.01844,35.34249,41.85139,57.35192,17.00779,42.379,41.00353,80.90025,55.80186,124.00413,21.70073,4.65016,49.56119.58535,71.39819-.42009a72.1524,72.1524,0,0,0-23.29375-9.406l6.88509.42348c-33.64911-27.87625-55.76637-66.14038-71.45223-105.61881s-33.69344-74.94594-47.08941-115.16122c-6.74264-20.24166-6.3041-46.2452-8.51675-67.352S493.84272,1490.30329,502.98363,1475.96913Z" transform="translate(-260.97479 -1322.70944)" style="fill: #ec008c"/>
</svg>
