<svg id="Layer_1" data-name="Layer 1" xmlns="http://www.w3.org/2000/svg" width="446.23216" height="801.22271" viewBox="0 0 446.23216 801.22271">
  <path d="M2554.32905,2018.89681c33.40727,4.76429,68.56709-18.0593,77.81494-50.51268s-8.60014-70.382-39.50079-83.94274c-5.35414-2.34969-11.27759-4.048-17.01749-2.93378-6.92041,1.34335-22.74981,10.34137-27.54947,15.5047-35.71731,38.42367-38.10843,66.39858-38.14134,118.85908-22.22711,1.532-48.26517,40.27223-56.22348,61.08224a128.09177,128.09177,0,0,0-6.59636,66.01965c15.80841,95.53714-26.768,146.98361,5.16431,234.79741,1.57108,4.32047,17.74016,41.68938,53.31589,40.62183,57.73119-1.73238,115.37837-5.60329,173.06756-8.40493,22.43251-1.08943,51.25518-7.6148,60.12016,13.02051,3.18648,7.41731,2.10349,24.43838,1.85772,32.50743-2.38843,78.41694-11.00039,142.75995-13.38882,221.17689,49.658,3.66623,109.58989,11.90584,159.03572-2.49191-22.568-30.3627-65.09915-44.19072-101.208-32.90547-15.25129-24.03216,5.4624-28.05132,21.0887-29.69358s36.95407-3.4777,38.815-19.07947l-27.17229-6.20959c6.35029-77.47895,3.61139-155.699-10.40542-232.20633-5.04716-29.80192-42.07908-41.39087-72.2967-40.66692s-63.42133,6.76477-88.3505-10.32805l50.82163-9.50061c10.84759-2.02785,24.31181-6.92275,24.62139-17.95392.21263-7.57605-6.85633-13.77331-14.28437-15.27858s-15.06726.50424-22.379,2.49924a78.83765,78.83765,0,0,0-73.213-2.2183C2601.29673,2121.42535,2524.127,2078.849,2554.32905,2018.89681Z" transform="translate(-2440.05544 -1881.1575)" style="fill: #ec008c"/>
</svg>
