<svg id="Layer_1" data-name="Layer 1" xmlns="http://www.w3.org/2000/svg" width="150.73666" height="374.90875" viewBox="0 0 150.73666 374.90875">
  <path d="M309.58735,623.338c6.73594-.40416,14.78346,4.92782,15.17769,12.02389s.39423,12.221-1.18268,15.3748a23.61079,23.61079,0,0,0-1.97113,7.09607s-.78845,1.18268,2.75958,1.5769,9.85565-4.33648,11.03833-5.51916,3.94226-11.82677,6.30761-16.16326,13.40368-29.17271,15.37481-31.93229,8.673-18.52861,8.673-19.71129.78845-9.46142,1.18267-14.98058,3.15381,2.75958,3.15381,2.75958,7.49029-15.37481,8.27874-14.98058-.78845,8.673-.78845,8.673,6.1105-9.46142,6.70184-9.0672-3.94226,13.79791-3.94226,13.79791,5.71627-9.85565,6.70184-9.0672-5.12494,14.58636-5.12494,14.58636,6.30762-9.65854,6.70184-8.27874-5.91338,14.98058-7.49029,17.74016-3.94226.78845-5.91339,7.49029-7.49029,21.68242-9.06719,32.32651-9.46142,31.53807-11.03832,35.0861-10.6441,14.58636-10.6441,21.2882-6.30761,38.63413-3.15381,50.85513-2.36535,18.92284,0,27.20158,3.548,16.95171,2.75959,29.96116-3.548,45.336-3.15381,47.70132,1.5769,46.91288,1.5769,50.06668-5.51916,2.75958-3.94226,7.88452,6.70184,17.34593,10.6441,20.10552,3.94226,4.73071,3.94226,5.91338-3.548,3.548-8.27874,3.94226-11.03833-5.12493-11.03833-5.12493-12.61522-1.18268-13.7979-4.33649-1.18268-8.27874-.39423-10.24987,2.36536-7.09606,3.15381-10.24987-4.33648-26.41313-3.548-27.59581,1.774-8.08163,1.774-8.08163,2.56247-8.87008.19712-21.87953-7.648-36.97838-7.8845-38.63415c-.59136-4.13935-1.073-7.99456-.9856-7.68737,0,0-.78843-7.09608-4.13935,18.72571-3.35955,25.8883-17.34594,28.38426-16.16326,37.84568s1.97113,50.85513.78845,52.432a18.3798,18.3798,0,0,1-1.899,2.06421,4.062,4.062,0,0,0-1.17866,3.75747l.93145,4.502a4.6359,4.6359,0,0,1-2.9683,5.3366,5.726,5.726,0,0,0-3.5585,2.86833c-1.5769,3.548-6.30761,8.673-9.85564,8.673s-10.6441-.78846-10.6441-.78846-1.5769-.78845-.39423-5.51916,8.673-8.27874,10.24987-12.61522,1.18268-8.673.78846-13.40368-1.57691-44.15329-.78846-47.70132,5.51917-60.71078,8.27875-68.98952,1.34805-20.13181,4.33648-30.35539c3.74515-12.81234-2.90434-57.30795-3.548-59.331-1.37979-4.33648-16.16326-23.06221-18.13439-31.73517s-12.61523-52.03781-13.00945-54.00894,3.1538-5.51916-1.97113-12.61523-12.61523-27.20158-11.43255-28.38426,6.70184,7.88452,6.70184,7.88452-7.09607-14.98058-5.12494-14.98058,8.673,13.00945,8.673,13.00945-6.30761-15.37481-4.73071-15.37481,9.46142,15.37481,9.46142,15.37481-6.70184-14.58635-4.73071-14.58635,9.46142,20.10551,9.85565,18.92283,2.36535-11.03832,3.548-11.03832-.78845,14.98058-.78845,16.16326-4.33649,2.75958,0,12.221,16.16326,35.87455,18.92284,41.78794,9.85564,27.20158,11.03832,27.20158,7.29318-2.16824,7.29318-2.16824,4.70357-2.14772,3.94226-4.33649c-1.57691-4.53359-4.29-7.56237-6.1105-14.38924C293.43446,630.128,299.7317,623.92937,309.58735,623.338Z" transform="translate(-237.91066 -554.54562)" style="fill: #ed1c24"/>
</svg>
