<svg id="Layer_1" data-name="Layer 1" xmlns="http://www.w3.org/2000/svg" width="933.20939" height="554.30289" viewBox="0 0 933.20939 554.30289">
  <path d="M2046.79773,2599.8329a148.74609,148.74609,0,0,1-26.26326-37.3164c4.04164,3.80611,12.64054,2.685,15.13729-1.97361,15.04852-18.27715,41.95228-29.08178,68.22221-27.39824s50.93863,15.79324,62.5546,35.7792c8.56819,14.74209,10.141,31.58687,11.57,47.96719,1.10692,12.68827.82475,27.917-11.76363,34.8929-14.13891,7.8351-40.91378,4.1727-42.26525,18.41677-.88749,9.35389,12.32184,14.60013,23.1637,16.62158,81.82066,15.25534,168.51735,3.609,249.61128,21.422l-50.015,5.23084a304.92738,304.92738,0,0,1,80.77034,23.74426l-54.18193,7.38165c6.19535,7.35683,16.0901,12.40813,26.67749,13.619l-344.81488-25.90719c-21.26368-1.59762-43.03394-3.30716-62.35356-10.98269-17.95446-7.13317-33.15935-19.19472-52.23245-23.8091-15.49676-3.74915-32.02292-2.197-48.05592-3.60344-62.75543-5.505-106.268-53.19137-146.32692-94.38986-87.49169-89.98064-195.61393-168.94834-251.92122-275.24964,1.35589,11.274,10.89847,21.55566,23.53071,25.35319a76.7096,76.7096,0,0,1-11.78961-25.11661l17.806,3.117a701.60082,701.60082,0,0,1,.32138-123.71456l21.17478,29.39882.645-19.16583c22.89378,29.87841,37.31316,64.36137,41.71692,99.76316,4.32646,34.78037-.46563,71.68749,17.68237,103.11625,10.98574,19.02515,29.45572,34.15114,48.43957,47.96132,21.96763,15.98078,45.98788,31.13857,74.073,37.19214,35.58291,7.66966,77.55948.98905,105.794,20.83425,22.9616,16.139,27.68325,43.74089,39.43464,66.94561,15.57381,30.75262,46.11815,55.86029,82.92215,68.16261,12.51865,4.18456,26.24439,6.95379,39.42914,4.656C2028.06234,2657.10491,2042.37662,2625.34234,2046.79773,2599.8329Z" transform="translate(-1494.31064 -2203.91711)" style="fill: #ec008c"/>
</svg>
