<svg id="Layer_1" data-name="Layer 1" xmlns="http://www.w3.org/2000/svg" width="118.9988" height="222.66241" viewBox="0 0 118.9988 222.66241">
  <g>
    <path d="M150.015,616.99845c-2.36535,0-6.50473,2.36536-8.27874-4.13937s-4.73071-10.05275-4.73071-13.60079-2.36536-9.46142-2.36536-9.46142,3.548-.59134,7.09607-4.73071S153.563,569.69136,158.885,565.552s23.06221-29.56694,28.9756-33.70631,24.83623-34.29765,27.79292-33.70631,3.548,10.6441-.59134,23.06221-8.27874,14.78347-13.00945,21.2882-8.27874,14.78346-11.23544,17.74016-8.27874,4.73071-14.19213,8.27874-22.47087,12.41811-24.24488,18.92284-8.87009,8.27874-5.32205,13.60079S150.015,616.99845,150.015,616.99845Z" transform="translate(-99.72606 -394.75539)" style="fill: #ec008c"/>
    <path d="M157.70235,398.79447c-2.95669-.59134,5.32205,1.18267-7.6874-1.18268s-20.10119-4.42315-18.92284-1.18268c2.36536,6.50473-2.36535,10.6441,3.548,10.6441s9.46142-4.13937,13.60079-1.774,8.27875,7.6874,8.27875,9.46142,12.41811-.59134-4.13937,1.774-14.78347-1.18268-15.96615,7.09606-7.6874,14.19213-9.46142,15.37481-3.548,3.548,4.13937,1.774,15.96615-2.36535,17.74016-3.548,1.18268-.59134-7.09606,7.68741c-9.6535,9.6535-11.23544,31.93229-6.50473,28.38425s11.23544-15.3748,17.74016-12.41811,15.37481,6.50473,15.37481,6.50473l8.87008-3.548s13.60079,8.87008,13.60079,14.19212S194.36535,489.86063,192,494s-11.82677,5.91339-13.60079,12.41811,5.322,9.46142,1.774,14.19213-5.91339,16.55749-11.23544,18.92284-9.46142-.59134-19.51418,1.18268-19.51418,6.50473-24.24489,6.50473-10.64409-.59134-10.64409-.59134l-5.32205,5.322s-10.05276,4.13937-9.46142,6.50472.59134,10.05276,3.548,10.05276,8.27874-9.46142,15.37481-9.46142,40.80237-2.36536,46.12442-2.36536,21.28819-4.13937,23.65355-6.50472,24.24489-35.48032,26.61024-38.437,4.13937-14.19213,3.548-23.65355a136.42759,136.42759,0,0,0-3.548-23.06221c-1.18268-4.73071-14.19213-8.27874-15.96615-15.3748s.59134-20.69686-10.05275-28.9756S157.70235,398.79447,157.70235,398.79447Z" transform="translate(-99.72606 -394.75539)" style="fill: #ed1c24"/>
  </g>
</svg>
