<svg id="Layer_1" data-name="Layer 1" xmlns="http://www.w3.org/2000/svg" width="342.97646" height="739.22751" viewBox="0 0 342.97646 739.22751">
  <path d="M888.08994,1662.00086c26.24882-26.60745,37.21755-64.1691,49.71187-99.39479s29.443-71.99836,61.88061-90.566c-6.77271,15.82436-25.71843,35.07214-32.49114,50.8965,9.65376-7.43733,31.48052-18.29807,41.13428-25.73539l-5.291,32.5146,15.8397-14.65276c-3.36415,52.474-40.30055,95.60749-65.164,141.93934-22.42148,41.78123-27.61222,58.46463-59.34233,93.70089-19.35944,21.49864-48.76482,48.55032-48.03243,77.47166.11461,4.52521,17.04377,4.64829,30.98867,23.24149,9.29671,12.39562,2.59568,38.98384-4.6483,52.68073-18.78224,35.51334-38.73583,38.73583-46.483,83.66939-2.07477,12.0337-.76321,48.61783,3.03215,60.22428,14.17285,43.34137,52.5195,74.61917,66.69234,117.96054a259.91417,259.91417,0,0,1-73.34019,11.00151A93.31936,93.31936,0,0,0,841.25477,2161.66c5.46562-5.80153-16.93864-2.55592-20.93645-9.45143-3.23088-5.57271,14.97746-26.00012-20.46582-59.08052,11.17085-7.93533-50.4635,65.99434-39.29264,58.059l-84.662,10.11606c34.39115-11.58226,80.33307-41.63134,83.01085-77.82152,3.75741-50.78143,13.8038-101.93088,13.054-122.05536-3.65161-98.00994-20.57863-140.80038,29.02224-225.41146,7.2941-12.44257,15.82436-24.42015,20.04388-38.21208s3.23947-30.30694-6.74212-38.928c-10.53541-11.31959-11.23355-28.25758-13.34512-43.5765-7.43935-53.971-39.3079-105.96843-28.79395-159.42565-3.02318,15.31239,5.143,30.277,9.11167,45.372,10.9369-21.517,14.205-42.00216,25.14186-63.51916a134.33392,134.33392,0,0,1-8.61277,47.37358,30.934,30.934,0,0,0,12.10526-3.981l16.79958,108.0644c11.09478-26.69347,38.23546-44.55366,70.77356-36.80649,12.87836,3.06627,23.04244,28.70992,24.87143,39.72915C924.05258,1602.43363,904.67125,1656.92342,888.08994,1662.00086Z" transform="translate(-675.89784 -1437.72536)" style="fill: #ec008c"/>
</svg>
