<svg id="Layer_1" data-name="Layer 1" xmlns="http://www.w3.org/2000/svg" width="539.30092" height="737.58216" viewBox="0 0 539.30092 737.58216">
  <path d="M2186.17694,982.2113c-30.05554-9.98238-52.06069,2.32329-68.50824,19.38975s-19.94261,45.22566-8.16635,65.79519c5.62075,9.81774,14.44238,18.40521,15.93211,29.61955,2.0837,15.68557-11.27853,29.422-25.5515,36.25292s-22.16041,4.85819-35.52179,13.33476c-36.104,22.90465-21.94644,79.02575-33.115,128.91184-17.74016,79.23939-27.20158,121.81577-62.68191,180.94965,36.88605-19.31729,78.80885-62.92355,85.15278-104.07562,6.52472-42.32482,6.14559-63.192,41.61048-90.17345a17.76936,17.76936,0,0,1,9.13594-3.71588c11.59175-1.00388,17.47006,11.4677,18.25153,21.95942,3.06889,41.20092,3.99768,60.05978-21.69085,99.13149-24.45052,37.18872-1.18268,89.88349-19.70636,160.24693-22.67586,86.13573-124.04686,119.40866-196.72362,170.90276,50.48577.92726,122.87516,15.98069,167.18522-8.23275l-54.83086-2.41135c16.40356,7.96052,62.68191-47.3071,86.40437-57.71573,62.92774-27.61061,70.57612-92.27772,89.81457-197.7426,32.88484,29.35248,61.35459,66.77711,94.23943,96.12959,13.77305,12.2936,28.30319,25.85076,32.10138,43.9174,3.52724,16.77784-2.98046,33.82536-5.1814,50.8281s-15.45466,35.06693.65637,40.92969c7.81535,2.844,40.31205-2.03384,48.48978-3.548,30.69164-5.68289,52.0378,3.548,80.42206-5.91339-23.65355-18.92284-49.37142-19.52088-77.5119-16.60149-5.92251-24.25344,7.60233-50.16035,1.4842-74.36518-3.12441-12.361-11.05679-22.86127-18.80382-32.98744-32.12158-41.98622-77.30593-119.341-110.95435-165.80186,14.67255-32.74378,9.07166-54.03706,10.64409-89.88349,41.05058,21.43,98.16223,48.48978,144.28665,55.58584-18.92284-52.03781-61.91148-72.25792-105.25829-100.52758-27.20158-17.74016-23.16371-56.80349-36.663-80.42207-11.43057-19.99912-53.747-46.32355-49.84142-69.02529,2.38247-13.84844,10.38794-25.9503,17.39174-38.13235s19.75391-14.87828,18.25755-28.85026S2211.70724,987.60373,2186.17694,982.2113Z" transform="translate(-1884.59419 -978.62948)" style="fill: #ec008c"/>
</svg>
