<svg id="Layer_1" data-name="Layer 1" xmlns="http://www.w3.org/2000/svg" width="405" height="439.04787" viewBox="0 0 405 439.04787">
  <path d="M381,202,277,526s8,8,39,12,73-1,73-1-17-95-15-157S381,202,381,202Z" transform="translate(-234 -173)" style="fill: #fff200"/>
  <path d="M391,210,624,506s-147-2-169,5-49,25-49,25,15-64,17-148S391,210,391,210Z" transform="translate(-234 -173)" style="fill: #fff200"/>
  <path d="M258,584l-24-34,39,10,20-11,101-2-9-374,18,372,61,6,33,14,142-31s-15,17-18,27-12,37-12,37-153,15-217,14-148-19-148-19Z" transform="translate(-234 -173)" style="fill: #ec008c"/>
</svg>
