<svg id="Layer_1" data-name="Layer 1" xmlns="http://www.w3.org/2000/svg" width="1555.90684" height="1604.82594" viewBox="0 0 1555.90684 1604.82594">
  <g>
    <path d="M1005.169,1010.03265c15.64522-14.74958,39.5628-32.82922,62.57568-38.88524,25.47653-6.70435,45.58959,8.485,67.98754,11.16678,11.1238,93.86091,6.9752,301.09222,4.82719,303.87079-2.00631,2.59524-139.6944,50.32136-143.70184,48.25789C993.16721,1332.54268,996.29573,1102.55269,1005.169,1010.03265Z" transform="translate(-442.7199 -542.82265)" style="fill: #00a651;stroke: #231f20;stroke-miterlimit: 10"/>
    <path d="M1525.87915,1956.56984l-28.40851-11.62167" transform="translate(-442.7199 -542.82265)" style="fill: #fff;stroke: #231f20;stroke-miterlimit: 10"/>
    <path d="M725.48357,1383.6855c16.42961-15.3715,40.08648-26.3923,62.0192-28.78021,24.80363-2.70047,44.24871,5.29088,71.84234,11.99523,7.47293,127.00742,0-13.6051,7.269,108.41409-32.38107,4.49356-111.71877,69.99948-142.95694,80.45221C717.28111,1506.3108,729.71466,1412.56271,725.48357,1383.6855Z" transform="translate(-442.7199 -542.82265)" style="fill: #00a651;stroke: #231f20;stroke-miterlimit: 10"/>
    <path d="M1519.06631,1982.67443a63.09489,63.09489,0,0,0-26.2452-19.6539" transform="translate(-442.7199 -542.82265)" style="fill: #fff;stroke: #231f20;stroke-miterlimit: 10"/>
    <polygon points="756.43 451.12 842.246 342.509 842.246 504.754 753.748 579.843 756.43 451.12" style="fill: #fff200;stroke: #231f20;stroke-miterlimit: 10"/>
    <path d="M1367.21622,613.85157c.86645,84.34141.87683,155.32531,1.74329,239.66672,57.8468,11.01122,212.81041-12.96416,213.232-16.13536,10.03-75.44272,2.65336-229.777-3.9035-241.79323-12.81564-23.48626-60.20415-58.48348-113.47208-51.31773C1401.589,552.77743,1383.28368,593.67292,1367.21622,613.85157Z" transform="translate(-442.7199 -542.82265)" style="fill: #00a651;stroke: #231f20;stroke-miterlimit: 10"/>
    <path d="M1725.12528,831.58744c13.05447,63.13037,31.47847,151.71682,23.78143,231.1861-95.35376-1.35986-232.357,4.09377-326.55946,18.92883-31.88246,5.02086-64.22936,11.82433-91.93276,28.384s-50.34232,44.58872-52.75043,76.77415c.93212-77.45319,1.86191-154.99993-3.22309-232.29163-1.23342-18.74742-4.76374-58.31687,10.52465-69.23715C1350.66826,838.40126,1571.91184,806.22037,1725.12528,831.58744Z" transform="translate(-442.7199 -542.82265)" style="fill: #00a651;stroke: #231f20;stroke-miterlimit: 10"/>
    <path d="M1403.24451,904.52c-66.23,16.19211-72.693,51.82806-112.21216,96.85376-246.94116,281.34942-372.76047,398.00762-599.7597,524.05188-4.73071,29.56694-15.37481,60.31655-15.57967,98.95906-.01808,3.40878-.15272,6.98881-1.87112,9.93281-1.74313,2.98639-4.8731,4.84112-7.86975,6.56655-26.88331,15.47913-53.76663,30.95825-80.00614,45.32056-29.49855,53.28564-17.39773,110.24927-26.0966,165.3739q445.67694-199.37049,894.88582-390.71712C1450.67334,1384.66264,1416.68188,940.30029,1403.24451,904.52Z" transform="translate(-442.7199 -542.82265)" style="fill: #ec008c;stroke: #231f20;stroke-miterlimit: 10"/>
    <path d="M933.17417,1491.70319" transform="translate(-442.7199 -542.82265)" style="fill: #fff;stroke: #231f20;stroke-miterlimit: 10"/>
    <path d="M1895.50852,910.80825c-.9783-6.522-330.932-107.874-545.28722,16.09044-8.46277,129.17518-13.9617,238.87613-17.18723,368.288,83.99925,18.5954,163.074-45.85731,247.91485-60.12936,102.30264-17.20952,222.98392.46662,325.28656-16.74289C1911.599,1195.07273,1900.872,946.56479,1895.50852,910.80825Z" transform="translate(-442.7199 -542.82265)" style="fill: #ed1c24;stroke: #231f20;stroke-miterlimit: 10"/>
    <path d="M912.81109,1544.99122c7.80592,9.12221-5.73158,31.15254,2.07435,40.27475,14.25884-27.19871,61.10164-59.31306,85.78372-77.58543l84.53646-62.5831c-2.28595-6.81845.71953-22.311-5.39315-26.09938C1036.392,1461.93215,965.79862,1491.56437,912.81109,1544.99122Z" transform="translate(-442.7199 -542.82265)" style="fill: #fff;stroke: #231f20;stroke-miterlimit: 10"/>
    <path d="M1145.51511,1327.81888l6.68939,27.14573c27.99057-46.93012,49.2281-43.99242,80.46718-88.82576,5.32136-7.63705,38.85133-40.86219,44.37219-43.94715a10.86958,10.86958,0,0,0,4.34929-14.5649c-3.09246-5.69409-3.35462-16.17434-11.17712-19.25842C1235.89153,1232.05122,1192.65671,1274.3978,1145.51511,1327.81888Z" transform="translate(-442.7199 -542.82265)" style="fill: #fff;stroke: #231f20;stroke-miterlimit: 10"/>
    <path d="M1124.18162,1254.61169c4.92548,6.15429,2.16283,22.79131,4.12063,23.36577,4.24484,1.24555,86.39072-80.44134,122.26277-119.67141,4.35986-4.768,8.76239-10.19561,9.17381-16.67049s-5.36256-13.57295-11.57813-11.89888C1244.875,1130.62165,1154.44125,1207.95284,1124.18162,1254.61169Z" transform="translate(-442.7199 -542.82265)" style="fill: #fff;stroke: #231f20;stroke-miterlimit: 10"/>
    <path d="M906.59012,1451.96441c5.21728,5.08242.37761,20.60658,5.59488,25.689,1.50547,1.46655,3.19965,3.02358,5.39372,3.25905,2.78006.29837,5.20692-1.60733,7.23745-3.37142a890.69415,890.69415,0,0,1,141.504-100.33984c-2.30745-9.84887,1.62112-24.37088-7.09115-30.55885-21.32107,21.815-60.62715,41.11406-87.21424,57.4456C941.98407,1422.53476,924.87315,1434.09425,906.59012,1451.96441Z" transform="translate(-442.7199 -542.82265)" style="fill: #fff;stroke: #231f20;stroke-miterlimit: 10"/>
    <path d="M730.301,1573.55c1.57691,9.06719-1.18267,20.894-1.18267,35.48032,38.254-23.80485,84.33132-49.7786,123.12378-72.72293-4.0835-7.33664.61968-32.89282-1.308-31.35269C816.98533,1532.0783,733.849,1567.24241,730.301,1573.55Z" transform="translate(-442.7199 -542.82265)" style="fill: #fff;stroke: #231f20;stroke-miterlimit: 10"/>
    <path d="M1442.99845,991.71714c158.04092-46.54568,377.57875-3.71778,377.57875-3.71778l.85414-36.16743s-111.54045-23.62948-182.04311-23.059c-66.31538.5366-148.0911,11.49014-184.73367,22.77922C1436.424,957.16875,1435.06191,994.05458,1442.99845,991.71714Z" transform="translate(-442.7199 -542.82265)" style="fill: #fff;stroke: #231f20;stroke-miterlimit: 10"/>
    <path d="M1780.95112,1122.21649c-97.84474-24.96118-285.457-42.2234-453.07766,110.40061-94.45742,86.00651-200.36838,225.62879-297.67319,308.40015-79.66854,67.76924-181.90481,132.9-282.28615,162.28255s-170.08147,55.39962-283.71554,47.65184c-49.67246,92.24884,4.79554,300.99815,2.213,300.99815,212.39057,84.74,476.1673,112.46745,703.1759,84.94089s472.39591-205.38725,699.17184-183.0794c-72.31259-85.22556-116.21666-266.007-85.22555-382.2237,27.39811-102.74292,154.63058-273.08045,214.35517-312.49369C1937.21745,1184.9549,1865.34646,1143.74659,1780.95112,1122.21649Z" transform="translate(-442.7199 -542.82265)" style="fill: #ed1c24;stroke: #231f20;stroke-miterlimit: 10"/>
    <path d="M1424.55494,1043.34748c1.18406,13.20372,2.22685,43.32161,3.41091,56.52533,67.06943-36.65231,131.34367-42.791,205.77908-46.195,64.54675-2.95179,146.6657,11.02227,206.14187,36.27265,8.3164-13.70212.46553-44.02043.46553-44.02043s-116.21666-38.73889-198.85962-36.1563C1522.90065,1013.47977,1445.21568,1035.5997,1424.55494,1043.34748Z" transform="translate(-442.7199 -542.82265)" style="fill: #fff;stroke: #231f20;stroke-miterlimit: 10"/>
    <path d="M1597.38838,1605.379c33.52175-18.77218,64.36177-28.15828,98.47774-25.78751,2.92955,22.26138-9.65321,103.03344-25.65983,106.86387C1633.59187,1695.21732,1604.09273,1625.49207,1597.38838,1605.379Z" transform="translate(-442.7199 -542.82265)" style="fill: #fff200;stroke: #231f20;stroke-miterlimit: 10"/>
    <path d="M735.1197,1670.05263c42.12408-22.05769,85.58271-50.46829,128.1977-71.56194-3.65406-8.17531,1.80367-30.93755-.34809-29.463-33.59454,23.02207-85.99117,44.102-122.41844,68.3869C737.00284,1639.78,735.03171,1658.30858,735.1197,1670.05263Z" transform="translate(-442.7199 -542.82265)" style="fill: #fff;stroke: #231f20;stroke-miterlimit: 10"/>
  </g>
</svg>
