<svg id="Layer_1" data-name="Layer 1" xmlns="http://www.w3.org/2000/svg" width="1212.1669" height="1169.47539" viewBox="0 0 1212.1669 1169.47539">
  <g>
    <path d="M1462.37834,1091.01763c14.40877,53.98757,313.40164,617.61784,309.90882,622.56672-220.02533,311.74846-522.79076,314.11382-832.65225,158.00039-4.21055-2.12135,243.63156-756.91357,243.63156-756.91357S1445.31529,1027.0848,1462.37834,1091.01763Z" transform="translate(-761.68369 -804.30968)" style="fill: #00a651;stroke: #231f20;stroke-miterlimit: 10"/>
    <path d="M764.59865,1180.90111c0,14.19213,99.5985,219.55349,612.62692,203.42052,376.09143-11.82677,596.21472-290.93418,596.06943-288.5733-9.46142,153.74807-337.62156,355.45882-588.97337,366.63C871.40971,1485.17443,764.59865,1166.709,764.59865,1180.90111Z" transform="translate(-761.68369 -804.30968)" style="fill: #ec008c;stroke: #231f20;stroke-miterlimit: 10"/>
    <path d="M1003.49949,1022.42233c-93.821,39.87394-203.42052,96.97955-241.2662,153.74807,9.46142,29.56694,21.2882,37.84568,48.48978,70.96065,149.29246,124.86373,244.81423,143.104,367.81492,163.72108,74.90176,12.55487,266.65821.01413,340.60887-19.43443,102.727-27.01656,118.26775-28.38426,215.93485-74.40985,55.94552-26.3643,91.84813-49.84092,141.23374-89.98232,25.57068-20.78429,99.34491-83.9701,96.97955-137.19058-129.21079-125.915-309.70177-136.97265-483.06282-136.97265C1331.66262,952.8623,1192.72789,942.00027,1003.49949,1022.42233Z" transform="translate(-761.68369 -804.30968)" style="fill: #ed1c24;stroke: #231f20;stroke-miterlimit: 10"/>
    <ellipse cx="308.04575" cy="470.47492" rx="36.663" ry="46.12442" style="fill: #fff200;stroke: #231f20;stroke-miterlimit: 10"/>
    <ellipse cx="848.52934" cy="446.27108" rx="36.663" ry="44.49203" style="fill: #fff200;stroke: #231f20;stroke-miterlimit: 10"/>
    <ellipse cx="1083.88215" cy="338.74575" rx="24.78425" ry="35.29293" style="fill: #fff200"/>
    <ellipse cx="571.84287" cy="496.81037" rx="46.18448" ry="47.99054" style="fill: #fff200;stroke: #231f20;stroke-miterlimit: 10"/>
    <ellipse cx="95.1638" cy="390.78356" rx="28.00052" ry="36.26375" style="fill: #fff200;stroke: #231f20;stroke-miterlimit: 10"/>
    <path d="M1211.29934,1045.22583c-38.6795.96088-64.30821,18.15291-100.1762,22.13825-42.57639,4.73071-71.80171,31.51643-59.51778,55.72012,12.39637,24.42525,55.592,31.73075,93.15331,40.66707,86.99757,20.69787,172.57726,22.45872,259.66848,13.60181,46.73583-4.75289,100.96441-21.01041,144.82422-32.66713a162.21012,162.21012,0,0,0,63.34341-33.44809c16.92437-14.29714,23.59247-35.09841,10.017-50.87239-10.35779-12.03516-47.879-15.47227-67.98454-15.47227-13.02109,0-9.37337-11.61632-21.57957-8.07654s-20.69459,13.66872-14.564,21.477c9.19493,11.71136,39.03587,8.36226,50.87677,18.9903,13.1478,11.80108-7.03737,27.30022-26.21981,34.67827-102.91684,39.58438-230.292,39.25177-347.91534,26.73334-16.41263-1.74676-33.21268-3.81474-47.3696-9.56219s-25.2744-16.02714-23.98578-26.95659c1.52006-12.89234,19.0285-22.392,36.693-28.00846s37.36353-9.20305,51.903-17.88073C1217.58708,1053.2311,1215.85591,1045.11264,1211.29934,1045.22583Z" transform="translate(-761.68369 -804.30968)" style="fill: #ec008c;stroke: #231f20;stroke-miterlimit: 10"/>
    <path d="M1087.74136,1106.52058c-12.9723-17.40424,9.55-20.06,18.01015-20.51948,2.96723-90.443,23.70768-181.39159,105.28421-232.95449,41.50261-26.233,71.71459-48.23693,145.181-48.23693,46.41114,0,114.7564,34.64577,142.10738,68.82159,40.52193,50.63331,64.01212,131.17247,66.68612,193.9023,11.6743,2.02523,42.77409,14.36364-4.50254,43.09091-26.02289,15.81259-79.86835,45.19795-232.95459,51.35379C1277.25663,1164.00077,1124.26963,1155.52861,1087.74136,1106.52058Z" transform="translate(-761.68369 -804.30968)" style="fill: #fff200;stroke: #231f20;stroke-miterlimit: 10"/>
    <path d="M1211.56112,1104.46863c126.071,32.83116,195.86034,20.51948,316.8556-23.2507" transform="translate(-761.68369 -804.30968)" style="fill: none;stroke: #231f20;stroke-miterlimit: 10"/>
    <path d="M1539.53531,1020.58128c-31.06233,29.58356-75.00272,47.613-119.89512,49.19489" transform="translate(-761.68369 -804.30968)" style="fill: none;stroke: #231f20;stroke-miterlimit: 10"/>
    <path d="M1271.46957,873.10394c-28.70694,8.92889-52.672,27.82881-71.22174,49.70318s-32.22867,46.78357-45.78639,71.515c-.9827,1.7926-1.99316,3.77324-1.49426,5.72488s3.34211,3.41214,4.97307,2.06833" transform="translate(-761.68369 -804.30968)" style="fill: none;stroke: #231f20;stroke-miterlimit: 10"/>
  </g>
</svg>
