<svg id="Layer_1" data-name="Layer 1" xmlns="http://www.w3.org/2000/svg" width="377.09649" height="49.68227" viewBox="0 0 377.09649 49.68227">
  <g id="calm_waves" data-name="calm waves">
    <g>
      <path d="M400.338,194.66379a78.06434,78.06434,0,0,1-34.27313,2.24271c-8.15839-1.29761-16.19074-3.909-24.495-3.28711-6.82312.51092-13.208,3.19137-20.06555,3.11166-6.18689-.07193-11.86468-2.37408-17.82666-3.591-11.5076-2.34882-23.82-.59485-35.21933,2.02368s-22.53418,6.10849-34.36581,7.30576-24.91611-.27695-33.49588-6.38215c-4.51532-3.213-7.6229-7.57016-13.02173-9.93527-9.43488-4.13318-21.35516-.63159-31.51068,2.44422-10.04315,3.04174-20.34571,5.62091-30.82712,7.71731-8.45712,1.69153-17.57028,3.05286-25.85358.94754-7.09247-1.80267-12.88028-6.00076-20.23105-7.11209-8.20117-1.23993-16.52737,1.6434-23.34256,5.21771s-12.9781,7.9614-20.6479,10.42945l-9.39348-29.6464c5.68883-4.42965,15.58359-5.54934,22.82247-2.58258,2.16154.8859,4.10991,2.09369,6.46232,2.659a23.50908,23.50908,0,0,0,7.85764.13821,119.09273,119.09273,0,0,0,35.38779-9.25723c9.82257-4.33954,20.44714-10.263,31.488-8.00314,10.01834,2.05057,16.58649,10.43353,26.96408,10.93191,3.48169.16721,6.918-.61694,10.40415-.723,9.85824-.30008,18.33844,4.67917,27.38885,7.56671a66.97364,66.97364,0,0,0,38.86313.17456c3.39633-1.04754,6.76962-2.39843,10.45212-2.45864,8.36874-.13682,14.12,6.12835,21.86392,8.464,6.88406,2.07627,14.83731.8432,21.61606-1.41244s12.91107-5.479,19.7666-7.60571a67.77179,67.77179,0,0,1,37.81522-.33664c8.63165,2.49838,16.163,6.70916,24.66052,9.44464s18.94,3.79559,26.66913.02527Z" transform="translate(-24.52529 -157.36109)" style="fill: #fff"/>
      <path d="M400.00572,193.45844a78.89361,78.89361,0,0,1-38.14344,1.41266c-6.33069-1.26682-12.721-2.84153-19.22638-2.56235-6.26056.26868-12.1922,2.54932-18.41168,3.06866-6.54767.54676-12.61548-1.718-18.8938-3.15576a63.47858,63.47858,0,0,0-18.95361-1.20956c-12.85431.97107-25.15662,4.8558-37.664,7.6871-11.87918,2.68912-24.4122,4.31635-36.3906,1.23816a33.66044,33.66044,0,0,1-14.45355-7.695c-3.96738-3.56237-7.79986-6.99579-13.096-8.37466-11.61667-3.02448-23.85272,2.1185-34.88983,5.23389q-9.56369,2.69947-19.2792,4.81533c-6.4946,1.41709-13.07682,2.84287-19.73792,3.11908a41.15734,41.15734,0,0,1-18.57495-3.6662c-5.21228-2.2593-10.36066-4.54089-16.13327-4.74441-12.28885-.43332-22.30991,6.724-32.66785,12.20447a56.2848,56.2848,0,0,1-8.66,3.76092l1.53764.873-9.39348-29.64639-.57444,1.41165c4.4533-3.353,10.33476-4.499,15.8154-3.94315a26.61083,26.61083,0,0,1,8.61865,2.67758,18.96342,18.96342,0,0,0,8.77208,1.89988,97.29608,97.29608,0,0,0,19.64-3.04484A116.134,116.134,0,0,0,98.02607,168.58c11.69232-5.03558,24.0639-12.24216,36.88394-6.47546,4.84555,2.17962,9.142,5.4089,14.07868,7.40692a23.86194,23.86194,0,0,0,7.47577,1.75656c3.468.21551,6.88836-.54575,10.34216-.69028,6.55609-.27438,12.754,1.96408,18.76852,4.31107,5.93085,2.31433,11.81,4.4385,18.13419,5.3995a69.81913,69.81913,0,0,0,19.50992.22364,64.29221,64.29221,0,0,0,9.28555-1.88666c3.30042-.93878,6.54626-2.35279,9.98712-2.6998,6.01233-.60635,11.03168,2.62759,16.09415,5.35577A30.86376,30.86376,0,0,0,275.592,185.301c13.3472-.83817,24.62164-8.83255,37.51782-11.516,13.369-2.78183,26.90967-1.10584,39.50708,3.9505,11.69116,4.69259,23.37048,10.55584,36.368,8.82342a26.68359,26.68359,0,0,0,7.89649-2.30493l-1.83625-.74692,4.08753,11.48908c.53546,1.50512,2.9519.8566,2.4107-.66461l-4.08752-11.48908a1.27443,1.27443,0,0,0-1.83624-.747c-12.09668,5.68985-26.038.10571-37.37781-4.70514-5.977-2.53567-11.98535-4.9454-18.38416-6.18838a69.66738,69.66738,0,0,0-19.55468-.98715,68.68642,68.68642,0,0,0-18.71619,4.45147c-6.26367,2.43231-12.3371,5.42984-18.89667,7.0188-6.465,1.566-13.35849,1.83377-19.54648-.91617-4.94082-2.19571-9.36572-5.61975-14.69391-6.89627-6.407-1.535-12.08117,1.20731-18.17108,2.76251a65.55553,65.55553,0,0,1-38.99688-2.20977c-5.92661-2.19532-11.743-4.908-18.02933-5.9231a34.72248,34.72248,0,0,0-9.224-.20395c-3.33917.34775-6.67236.82123-10.00452.1482-5.40323-1.09137-9.94973-4.32367-14.70642-6.91629-4.97842-2.71344-10.23956-4.43613-15.97439-4.13508-6.317.33161-12.28894,2.63907-18.01389,5.16745a184.40438,184.40438,0,0,1-18.56586,7.56785,121.22422,121.22422,0,0,1-19.697,4.47271c-3.42968.48563-7.1101,1.12213-10.57055.62061-3.16953-.45935-5.83515-2.32715-8.83168-3.32636a26.83444,26.83444,0,0,0-15.7412-.15072,21.08138,21.08138,0,0,0-6.78522,3.324,1.29585,1.29585,0,0,0-.57444,1.41165l9.39346,29.6464a1.26641,1.26641,0,0,0,1.53764.873c11.4041-3.76819,20.65985-12.19952,32.44318-15.00113A29.83682,29.83682,0,0,1,86.436,193.56021c5.49478,2.198,10.65113,4.86087,16.5951,5.65674,6.16018.82483,12.4021.1283,18.48907-.93365,6.59174-1.15,13.13776-2.64319,19.62714-4.26834,6.24972-1.56513,12.41064-3.40226,18.59143-5.21289,5.85486-1.71515,11.89786-3.30863,18.04193-3.28553a23.14458,23.14458,0,0,1,15.96777,6.36142c3.86392,3.444,7.52777,6.61921,12.36875,8.627,10.52276,4.36432,22.51571,4.21057,33.58789,2.48666,12.93869-2.01449,25.38119-6.33664,38.29812-8.4595a79.2316,79.2316,0,0,1,19.51642-1.0199c6.4986.55246,12.5379,2.91092,18.92914,3.97641,6.21625,1.03632,12.01331-.15695,18.07983-1.46973a48.24087,48.24087,0,0,1,19.708-.14114c6.30554,1.18143,12.51148,2.65427,18.93451,3.06641a80.49633,80.49633,0,0,0,18.36859-.95081,75.55983,75.55983,0,0,0,9.13062-2.12411,1.25107,1.25107,0,0,0-.66461-2.41083Z" transform="translate(-24.52529 -157.36109)" style="fill: #58595b"/>
    </g>
  </g>
</svg>
