<svg id="Layer_1" data-name="Layer 1" xmlns="http://www.w3.org/2000/svg" width="3112.23475" height="1194.54597" viewBox="0 0 3112.23475 1194.54597">
  <g>
    <path d="M1100.3267-333.76253" transform="translate(22.07462 -1792.86091)" style="fill: #ed1c24;stroke: #0059a9;stroke-miterlimit: 10;stroke-width: 1.01583573352468px"/>
    <path d="M2986.072,2033.7975c-45.38323-44.62151-131.07923-84.99433-156.538-143.4327-23.2768-53.42985-93.40458-91.35749-181.51384-60.65416,40.09364,22.29766,77.56893,71.02215,64.06846,115.011s-59.97651,75.22488-105.61053,70.9796c-90.94182-8.46022-140.66145-132.38359-231.95409-135.04411-25.331-.73823-93.20707,64.63206-79.56861,56.07042,57.54075-36.12156,80.3534,12.45178,79.62816,35.42836-1.68,43.58077-8.87264,83.3145-53.61263,96.56185-167.4415-33.11421-187.4437-172.68594-310.4441-184.59974-75.08464-7.27268-154.13531,8.53149-224.17564-19.60068-27.91935-11.214-53.32384-29.12122-82.63621-35.85353s-65.89775,2.3703-77.01846,30.43043c39.53477-9.51677,68.18228-7.82911,96.47612,15.76833,15.584,20.46889,33.56544,46.958-26.37284,89.09987-77.91975,45.754-116.79923,55.93711-191.87984,35.59185-59.3168-16.07359-97.70692-71.71989-145.2647-110.78663s-129.08772-56.908-163.081-5.50574c30.30945-8.39935,57.20383-5.69173,79.45884,18.0898,26.34449,28.15152,22.74819,75.10956-31.19625,89.55819-26.92895,7.21272-53.45734-12.58678-67.56808-28.78144-44.904-51.53559-104.14143-92.17526-170.81276-106.51919s-140.75655-.05294-192.10794,45.00072c25.33441-5.27854,72.08626-18.52312,87.67021,20.00656,10.44385,25.82132,1.17042,110.02707-49.17773,106.41491-147.44815-10.83647-127.12593-192.82-201.39259-223.95372s-161.968,12.85823-209.19247,78.30853c30.54022-8.99971,66.45591,11.68739,74.14686,42.70789s-14.37139,66.20922-45.547,72.64606c-37.857,7.81634-71.954-21.35852-104.10033-42.90831-72.15614-48.37095-165.11545-64.16429-249.09625-42.32024,33.53408,9.72891,72.73868,25.37336,79.34916,59.79781,4.13966,21.55754-7.25764,43.84272-23.94,58.02919a89.0892,89.0892,0,0,1-55.69616,21.035c-44.73074.75369-109.47727-22.9113-139.4464-65.05313V2983.48s2086.42419-90.44108,3015.33919,3.92693c5.836-231.138,1.31951-462.343-1.79815-693.5341C2990.33076,2209.65738,2998.16807,2093.20015,2986.072,2033.7975Z" transform="translate(22.07462 -1792.86091)" style="fill: #ed1c24"/>
    <path d="M3090.16013,1878.26178a565.50918,565.50918,0,0,0-2.652,92.50322Z" transform="translate(22.07462 -1792.86091)" style="fill: #ed1c24"/>
  </g>
</svg>
