<svg id="Layer_1" data-name="Layer 1" xmlns="http://www.w3.org/2000/svg" width="3199.56011" height="1430.11406" viewBox="0 0 3199.56011 1430.11406">
  <g>
    <path d="M1100.3267-333.76253" transform="translate(109.39999 -1574.04854)" style="fill: #ed1c24;stroke: #0059a9;stroke-miterlimit: 10;stroke-width: 1.01583573352468px"/>
    <path d="M10.673,2951.83225c67.555-76.65943-342.4078-1194.14784,57.7656-1303.14552,7.8317-2.13317,134.15159-3.47219,134.15159-3.47219s-91.53925,67.81992-86.01807,136.86116c7.869,98.4002,92.35144,99.80733,116.145,102.20634,77.50682,7.81472,121.05457-186.53287,193.44878-215.41592,93.07072-37.13234,160.22433,57.21841,255.14423,25.15423,40.42206-13.65466,118.11063-108.316,159.84622-117.12388s92.64795,2.29385,111.73672,40.59835c-16.91981-23.04442-55.05572,12.85619-42.852,38.733s44.80291,33.13718,73.00879,37.29071c93.3052,13.73991,193.84416,26.36306,277.469-17.41671,28.51511-14.9284,163.25394-116.84534,207.46265-43.37683,14.08144,23.40132-38.64938,56.1599-36.11893,83.38492,2.35368,25.32318,59.71154,124.28865,79.10022,94.19217,39.55926-61.40667,106.88082-87.816,143.7108-101.25309,30.83342-11.24933,60.97148-26.26518,93.63374-29.33069,38.53144-3.61636,76.45872,9.75536,114.95834,13.69872,77.22474,7.90984,152.64375-22.10529,229.104-35.56213s167.58992-4.20648,212.212,59.59176c7.38858,10.5638,13.53167,22.6261,24.23277,29.77743,8.77278,5.86267,19.57957,7.67442,30.07464,8.61926,72.25831,6.50521,146.86449-23.759,194.35829-78.842,14.51035-16.829,38.22961-37.47661,54.73522-22.61783,5.55965,5.005,7.71468,12.698,11.67829,19.05276,20.7628,33.2886,70.977,15.38649,106.79149-.39379,87.7188-38.64991,191.03138-40.00461,279.72483-3.66792,1.22627,25.30733-37.22988,27.23305-56.67027,43.3795-20.96051,17.409-15.87449,53.26362,3.1248,72.81192s46.80813,27.01279,73.18539,33.67533l-24.65892,1184.92125" transform="translate(109.39999 -1574.04854)" style="fill: #ec008c"/>
    <path d="M3090.16013,1878.26178a565.50918,565.50918,0,0,0-2.652,92.50322Z" transform="translate(109.39999 -1574.04854)" style="fill: #ed1c24"/>
  </g>
</svg>
