<svg id="Layer_1" data-name="Layer 1" xmlns="http://www.w3.org/2000/svg" width="3239.75288" height="2289.49066" viewBox="0 0 3239.75288 2289.49066">
  <path d="M3053.16133,3337.67412l154.35376,68.87933" transform="translate(32.03284 -1214.69191)" style="fill: #43aed5;stroke: #31507c;stroke-miterlimit: 10;stroke-width: 1.00590062141418px"/>
  <path d="M2910.81285,3463.37889l-58.88136-45.655a243.53888,243.53888,0,0,1,111.1428,44.5396c8.00326,5.84266,16.28555,13.34065,16.96166,23.25264s-11.91383,19.60584-19.2372,12.92441C2968.684,3505.30623,2975.91468,3513.857,2910.81285,3463.37889Z" transform="translate(32.03284 -1214.69191)" style="fill: #43aed5;stroke: #31507c;stroke-miterlimit: 10;stroke-width: 1.00590062141418px"/>
  <path d="M2572.90042,2439.7188c-68.05247-97.60032-150.00595-189.21357-255.50286-243.75448-177.86729-91.95579-389.96607-65.22634-590.02171-63.66694-267.61033,2.086-551.79223,50.96172-789.60341-72.27633-110.41479-57.21893-159.5263-142.854-173.97117-224.49042-17.2726-97.61792,14.09133-135.37706,93.58292-194.19763,12.657-9.36559,71.23534-35.76173,124.4766-12.71471,34.177,14.79444,39.36468,37.74807,35.80292,82.4503,14.51747-13.90667,29.46148-47.813,29.01117-69.80534a1.31086,1.31086,0,0,1,2.001-1.15329c21.25762,12.993,43.78493,19.10621,45.5658,76.323.56186,18.052,32.05587-75.1,24.93233-103.70932-2.60465-10.46113,37.39859,5.36423,74.7971,59.007,0,0,5.3427-76.88793-19.5897-109.07357-21.56441-27.83783,66.86845,37.31559,66.86845,37.31559-6.31838-146.38919-104.267-151.75347-102.4861-155.32965,25.709-51.626,81.7119-4.01021,118.07674,14.19179-20.15168-57.86013-58.23271-110.51158-127.68717-133.75677,3.77783,1.26437,24.93237-23.24519,75.03614,5.503-30.65434-67.00215-82.58911-96.52287-157.56746-111.77378s-118.70853,18.65425-156.035,85.33544c-32.128-27.34318-63.131-70.52353-107.67511-63.51585s-70.48535,32.59649-83.16622,93.53868c12.35469-59.37462-110.2001-57.366-155.08566,35.7236-25.4875-8.57754-31.69244-35.87067-72.65277-19.77785-25.0329,9.83513-52.54241,50.06792-45.19115,76.029-61.44214,5.35539-108.18695,10.07317-147.14428,58.07788-23.23812,28.635-43.045,110.41755-7.16384,118.56924-16.81705-6.73256-114.90752-23.74787-109.80689,47.94985,3.56176,50.06657,60.55,103.70932,28.49413,171.6568-27.58717,58.4753-104.45962,61.10176-149.59422,107.2855-65.02706,66.53855-78.87624,134.017-71.23535,214.571,6.86017,72.32322-7.67138,709.3106,14.24707,826.09834,716.88742,0,2311.02118-25.51624,3030.87718,1.43739,3.43022-123.9828,0-141.20258-3.43-258.29742-1.34773-46.00423-168.07416-206.63809-257.25645-241.07765C2675.73349,2441.87641,2572.32716,2439.14962,2572.90042,2439.7188Z" transform="translate(32.03284 -1214.69191)" style="fill: #ed1c24;stroke: #31507c;stroke-miterlimit: 10;stroke-width: 1.00590062141418px"/>
  <path d="M1267.80287,343.14524" transform="translate(32.03284 -1214.69191)" style="fill: #648490;stroke: #31507c;stroke-miterlimit: 10;stroke-width: 1.00590062141418px"/>
  <path d="M1204.34633,258.76806" transform="translate(32.03284 -1214.69191)" style="fill: #002234;stroke: #31507c;stroke-miterlimit: 10;stroke-width: 1.00590062141418px"/>
</svg>
