<svg id="Layer_1" data-name="Layer 1" xmlns="http://www.w3.org/2000/svg" width="3247.84501" height="2983.32945" viewBox="0 0 3247.84501 2983.32945">
  <path d="M3053.16133,3337.67412l154.35376,68.87933" transform="translate(40.12497 -520.85313)" style="fill: #43aed5;stroke: #31507c;stroke-miterlimit: 10;stroke-width: 1.00590062141418px"/>
  <path d="M2910.81285,3463.37889l-58.88136-45.655a243.53888,243.53888,0,0,1,111.1428,44.5396c8.00326,5.84266,16.28555,13.34065,16.96166,23.25264s-11.91383,19.60584-19.2372,12.92441C2968.684,3505.30623,2975.91468,3513.857,2910.81285,3463.37889Z" transform="translate(40.12497 -520.85313)" style="fill: #43aed5;stroke: #31507c;stroke-miterlimit: 10;stroke-width: 1.00590062141418px"/>
  <path d="M622.9859,912.73275c44.67944-42.54911,90.90555-86.10345,148.28594-108.54573,57.38039-22.44235,129.34724-18.88222,172.64329,25.08509,58.49283-30.11991,89.91438-68.68619,148.40727-98.806,37.50192-19.311,103.34571-30.54907,145.36786-33.794,42.02228-3.2449,88.56712,14.11976,107.13347,52.10942,29.312-34.41582,79.03132-49.79118,122.549-37.89745,30.58719,8.35976,58.08054,28.88534,89.75946,30.04892,20.85055.76579,40.91535-7.03056,60.87488-13.13335,68.12158-20.82882,128.34071-52.24517,198.54136-40.24776,111.602,19.073,178.87278,179.11992,139.69325,157.66281C1908.41,819.019,1838.29114,832.44592,1844.7246,892.196c1.10232,10.23767-42.146-70.69522-103.37619-55.32569-37.99219,9.53651-57.84916,58.5558-18.99609,83.44428.37866.24257-87.85693-7.15237-44.88807,68.72737-22.53085-12.19216-47.22214-24.7807-72.4721-20.57689-25.25008,4.20375-53.15739,47.02836-39.35759,68.67151-14.24707-42.9142-47.49023-100.13313-90.23144-30.99359-17.7092,28.647,23.4902,68.0469,23.4902,68.0469-27.3338-15.687-56.73336-15.59621-82.853-3.6756-28.66177,13.08081-63.33389,61.89349-41.15106,84.32557-73.60985-40.53008-148.42463,2.97677-208.957,47.68244-71.44065,52.76189-93.40239,177.09915-94.1961,266.1404-.715,80.2132,50.44924,164.205,98.08913,228.6001,61.79971,83.53513,164.23488,126.03915,264.67445,151.69792a1219.374,1219.374,0,0,0,574.23071,6.502c95.42217-22.08905,189.15815-55.87773,286.97333-60.545,99.88837-4.76616,240.87225,13.12349,333.71194,50.43625,168.44154,67.6977,290.07487,195.48236,339.70841,370.70284,60.60308,213.94635-63.96615,442.2186-28.28682,661.74574,3.32238,20.44143,7.32659,43.80528-5.6855,59.87661-8.93043,11.02994-23.579,15.31588-37.40792,18.3601-81.57924,17.95949-166.18553,13.22816-249.59653,9.00325q-421.22664-21.33716-843.15006-22.35591c-598.78352-1.4403-1197.17093,27.85107-1795.2454,57.13456C-67.77091,2248.52725-30.82156,714.96927-30.82156,711.39309c0-72.08385,99.54726-182.82989,181.65013-189.53772,87.1321-7.11872,173.90307,63.12687,225.008,131.35344-89.66087-27.64412-147.67655-10.90963-160.89623,51.0319,7.12353-33.37771,99.72948-16.68885,121.1001,21.45712-36.13351,15.589-67.67359,50.06654-57.48054,100.53467,21.53345,7.64047,45.53978,26.85132,43.23346,49.665-2.41858,23.92435-28.43466,56.35859-22.14018,79.81792a15.97488,15.97488,0,0,0,2.521,5.43979c6.59461,8.853,19.84675,6.66958,25.986-.65374,58.93236-70.29921,96.92454-41.68974,96.92454-41.68974S351.4748,983.183,412.0359,1044.22609c29.89877,29.31253,75.91867,39.915,111.58759,18.05595,72.426-45.7213,20.18675-136.31794,43.93186-160.15917C576.94379,887.63979,635.12953,885.49465,622.9859,912.73275Z" transform="translate(40.12497 -520.85313)" style="fill: #ec008c;stroke: #31507c;stroke-miterlimit: 10;stroke-width: 1.00590062141418px"/>
  <path d="M1267.80287,343.14524" transform="translate(40.12497 -520.85313)" style="fill: #648490;stroke: #31507c;stroke-miterlimit: 10;stroke-width: 1.00590062141418px"/>
  <path d="M1204.34633,258.76806" transform="translate(40.12497 -520.85313)" style="fill: #002234;stroke: #31507c;stroke-miterlimit: 10;stroke-width: 1.00590062141418px"/>
</svg>
