<svg id="Layer_1" data-name="Layer 1" xmlns="http://www.w3.org/2000/svg" width="3229.07095" height="1469.57849" viewBox="0 0 3229.07095 1469.57849">
  <path d="M3053.16133,3337.67412l154.35376,68.87933" transform="translate(21.35091 -2034.60408)" style="fill: #43aed5;stroke: #31507c;stroke-miterlimit: 10;stroke-width: 1.00590062141418px"/>
  <path d="M2910.81285,3463.37889l-58.88136-45.655a243.53888,243.53888,0,0,1,111.1428,44.5396c8.00326,5.84266,16.28555,13.34065,16.96166,23.25264s-11.91383,19.60584-19.2372,12.92441C2968.684,3505.30623,2975.91468,3513.857,2910.81285,3463.37889Z" transform="translate(21.35091 -2034.60408)" style="fill: #43aed5;stroke: #31507c;stroke-miterlimit: 10;stroke-width: 1.00590062141418px"/>
  <path d="M2958.46743,2830.69911c-116.66041-134.53339-277.46773-229.8153-451.15691-267.32051-181.67163-39.22887-370.6956-16.21545-553.56073,16.95525s-367.38216,50.73766-551.2616,77.66885c-219.93435,32.21182-504.05831,61.195-642.5974-63.15307-44.02258-39.51316-109.22753-66.75542-94.98046-195.498,7.197-65.03514,101.83222-136.68826,218.45506-157.35206-51.45126-55.10347-145.36984-121.34268-244.84226-93.791,0-65.43536,94.08093-72.56351,125.37243-65.24242-102.4543-52.24777-231.56928-47.543-329.98194,12.02418-18.84081-21.63994-38.7124-44.03015-65.30214-54.6788s-61.88382-5.33457-76.3952,19.44152c-35.96952-22.87219-90.24-7.45666-108.94457,30.94569-60.51356-5.48547-167.97031,10.49691-203.588,228.64409-3.56177,46.49039,11.0839,699.75077,34.5642,703.63324,25.82649,4.2704,2998.50641,21.87436,2994.46289,24.10776C3018.45169,2985.3396,2988.13032,2912.76917,2958.46743,2830.69911Z" transform="translate(21.35091 -2034.60408)" style="fill: #fff200;stroke: #31507c;stroke-miterlimit: 10;stroke-width: 1.00590062141418px"/>
  <path d="M1267.80287,343.14524" transform="translate(21.35091 -2034.60408)" style="fill: #648490;stroke: #31507c;stroke-miterlimit: 10;stroke-width: 1.00590062141418px"/>
  <path d="M1204.34633,258.76806" transform="translate(21.35091 -2034.60408)" style="fill: #002234;stroke: #31507c;stroke-miterlimit: 10;stroke-width: 1.00590062141418px"/>
</svg>
