<svg id="Layer_1" data-name="Layer 1" xmlns="http://www.w3.org/2000/svg" width="3247.84501" height="2983.32945" viewBox="0 0 3247.84501 2983.32945">
  <path d="M3053.16133,3337.67412l154.35376,68.87933" transform="translate(40.12497 -520.85313)" style="fill: #43aed5;stroke: #31507c;stroke-miterlimit: 10;stroke-width: 1.00590062141418px"/>
  <path d="M2910.81285,3463.37889l-58.88136-45.655a243.53888,243.53888,0,0,1,111.1428,44.5396c8.00326,5.84266,16.28555,13.34065,16.96166,23.25264s-11.91383,19.60584-19.2372,12.92441C2968.684,3505.30623,2975.91468,3513.857,2910.81285,3463.37889Z" transform="translate(40.12497 -520.85313)" style="fill: #43aed5;stroke: #31507c;stroke-miterlimit: 10;stroke-width: 1.00590062141418px"/>
  <path d="M622.9859,912.73275c44.67944-42.54911,90.90555-86.10345,148.28594-108.54573,57.38039-22.44235,129.34724-18.88222,172.64329,25.08509,58.49283-30.11991,89.91438-68.68619,148.40727-98.806,37.50192-19.311,103.34571-30.54907,145.36786-33.794,42.02228-3.2449,88.56712,14.11976,107.13347,52.10942,29.312-34.41582,79.03132-49.79118,122.549-37.89745,30.58719,8.35976,58.08054,28.88534,89.75946,30.04892,20.85055.76579,40.91535-7.03056,60.87488-13.13335,68.12158-20.82882,128.34071-52.24517,198.54136-40.24776,111.602,19.073,178.87278,179.11992,139.69325,157.66281C1908.41,819.019,1838.29114,832.44592,1844.7246,892.196c1.10232,10.23767-42.146-70.69522-103.37619-55.32569-37.99219,9.53651-57.84916,58.5558-18.99609,83.44428.37866.24257-87.85693-7.15237-44.88807,68.72737-22.53085-12.19216-47.22214-24.7807-72.4721-20.57689-25.25008,4.20375-53.15739,47.02836-39.35759,68.67151-14.24707-42.9142-47.49023-100.13313-90.23144-30.99359-17.7092,28.647,23.4902,68.0469,23.4902,68.0469-27.3338-15.687-56.73336-15.59621-82.853-3.6756-28.66177,13.08081-63.33389,61.89349-41.15106,84.32557-73.60985-40.53008-148.42463,2.97677-208.957,47.68244-71.44065,52.76189-93.40239,177.09915-94.1961,266.1404-.715,80.2132,50.44924,164.205,98.08913,228.6001,61.79971,83.53513,164.23488,126.03915,264.67445,151.69792a1219.374,1219.374,0,0,0,574.23071,6.502c95.42217-22.08905,189.15815-55.87773,286.97333-60.545,99.88837-4.76616,240.87225,13.12349,333.71194,50.43625,168.44154,67.6977,290.07487,195.48236,339.70841,370.70284,60.60308,213.94635-63.96615,442.2186-28.28682,661.74574,3.32238,20.44143,7.32659,43.80528-5.6855,59.87661-8.93043,11.02994-23.579,15.31588-37.40792,18.3601-81.57924,17.95949-166.18553,13.22816-249.59653,9.00325q-421.22664-21.33716-843.15006-22.35591c-598.78352-1.4403-1197.17093,27.85107-1795.2454,57.13456C-67.77091,2248.52725-30.82156,714.96927-30.82156,711.39309c0-72.08385,99.54726-182.82989,181.65013-189.53772,87.1321-7.11872,173.90307,63.12687,225.008,131.35344-89.66087-27.64412-147.67655-10.90963-160.89623,51.0319,7.12353-33.37771,99.72948-16.68885,121.1001,21.45712-36.13351,15.589-67.67359,50.06654-57.48054,100.53467,21.53345,7.64047,45.53978,26.85132,43.23346,49.665-2.41858,23.92435-28.43466,56.35859-22.14018,79.81792a15.97488,15.97488,0,0,0,2.521,5.43979c6.59461,8.853,19.84675,6.66958,25.986-.65374,58.93236-70.29921,96.92454-41.68974,96.92454-41.68974S351.4748,983.183,412.0359,1044.22609c29.89877,29.31253,75.91867,39.915,111.58759,18.05595,72.426-45.7213,20.18675-136.31794,43.93186-160.15917C576.94379,887.63979,635.12953,885.49465,622.9859,912.73275Z" transform="translate(40.12497 -520.85313)" style="fill: #ec008c;stroke: #31507c;stroke-miterlimit: 10;stroke-width: 1.00590062141418px"/>
  <path d="M2572.90042,2439.7188c-68.05247-97.60032-150.00595-189.21357-255.50286-243.75448-177.86729-91.95579-389.96607-65.22634-590.02171-63.66694-267.61033,2.086-551.79223,50.96172-789.60341-72.27633-110.41479-57.21893-159.5263-142.854-173.97117-224.49042-17.2726-97.61792,14.09133-135.37706,93.58292-194.19763,12.657-9.36559,71.23534-35.76173,124.4766-12.71471,34.177,14.79444,39.36468,37.74807,35.80292,82.4503,14.51747-13.90667,29.46148-47.813,29.01117-69.80534a1.31086,1.31086,0,0,1,2.001-1.15329c21.25762,12.993,43.78493,19.10621,45.5658,76.323.56186,18.052,32.05587-75.1,24.93233-103.70932-2.60465-10.46113,37.39859,5.36423,74.7971,59.007,0,0,5.3427-76.88793-19.5897-109.07357-21.56441-27.83783,66.86845,37.31559,66.86845,37.31559-6.31838-146.38919-104.267-151.75347-102.4861-155.32965,25.709-51.626,81.7119-4.01021,118.07674,14.19179-20.15168-57.86013-58.23271-110.51158-127.68717-133.75677,3.77783,1.26437,24.93237-23.24519,75.03614,5.503-30.65434-67.00215-82.58911-96.52287-157.56746-111.77378s-118.70853,18.65425-156.035,85.33544c-32.128-27.34318-63.131-70.52353-107.67511-63.51585s-70.48535,32.59649-83.16622,93.53868c12.35469-59.37462-110.2001-57.366-155.08566,35.7236-25.4875-8.57754-31.69244-35.87067-72.65277-19.77785-25.0329,9.83513-52.54241,50.06792-45.19115,76.029-61.44214,5.35539-108.18695,10.07317-147.14428,58.07788-23.23812,28.635-43.045,110.41755-7.16384,118.56924-16.81705-6.73256-114.90752-23.74787-109.80689,47.94985,3.56176,50.06657,60.55,103.70932,28.49413,171.6568-27.58717,58.4753-104.45962,61.10176-149.59422,107.2855-65.02706,66.53855-78.87624,134.017-71.23535,214.571,6.86017,72.32322-7.67138,709.3106,14.24707,826.09834,716.88742,0,2311.02118-25.51624,3030.87718,1.43739,3.43022-123.9828,0-141.20258-3.43-258.29742-1.34773-46.00423-168.07416-206.63809-257.25645-241.07765C2675.73349,2441.87641,2572.32716,2439.14962,2572.90042,2439.7188Z" transform="translate(40.12497 -520.85313)" style="fill: #ed1c24;stroke: #31507c;stroke-miterlimit: 10;stroke-width: 1.00590062141418px"/>
  <path d="M2958.46743,2830.69911c-116.66041-134.53339-277.46773-229.8153-451.15691-267.32051-181.67163-39.22887-370.6956-16.21545-553.56073,16.95525s-367.38216,50.73766-551.2616,77.66885c-219.93435,32.21182-504.05831,61.195-642.5974-63.15307-44.02258-39.51316-109.22753-66.75542-94.98046-195.498,7.197-65.03514,101.83222-136.68826,218.45506-157.35206-51.45126-55.10347-145.36984-121.34268-244.84226-93.791,0-65.43536,94.08093-72.56351,125.37243-65.24242-102.4543-52.24777-231.56928-47.543-329.98194,12.02418-18.84081-21.63994-38.7124-44.03015-65.30214-54.6788s-61.88382-5.33457-76.3952,19.44152c-35.96952-22.87219-90.24-7.45666-108.94457,30.94569-60.51356-5.48547-167.97031,10.49691-203.588,228.64409-3.56177,46.49039,11.0839,699.75077,34.5642,703.63324,25.82649,4.2704,2998.50641,21.87436,2994.46289,24.10776C3018.45169,2985.3396,2988.13032,2912.76917,2958.46743,2830.69911Z" transform="translate(40.12497 -520.85313)" style="fill: #fff200;stroke: #31507c;stroke-miterlimit: 10;stroke-width: 1.00590062141418px"/>
  <path d="M1267.80287,343.14524" transform="translate(40.12497 -520.85313)" style="fill: #648490;stroke: #31507c;stroke-miterlimit: 10;stroke-width: 1.00590062141418px"/>
  <path d="M1204.34633,258.76806" transform="translate(40.12497 -520.85313)" style="fill: #002234;stroke: #31507c;stroke-miterlimit: 10;stroke-width: 1.00590062141418px"/>
</svg>
